<?xml version="1" encoding="UTF-8"?>
<!-- Generator: visioncortex VTracer 0.12 -->
<svg version="1" xmlns="http://www.w3.org/2000/svg" viewBox="0 0 569 919" width="569" height="919">
<g transform="translate(0.00 0.00) scale(1.00)" fill="white"><path d="M0 0 C0 0 1 0 2 0 C3 0 4 0 4 0 C6 0 6 0 7 1 C8 3 8 4 8 6 C10 20 17 29 27 38 C34 44 40 50 46 56 C47 57 48 58 49 59 C49 60 50 60 51 61 C53 63 55 65 57 67 C61 71 65 74 69 78 C70 80 72 81 73 83 C75 85 78 87 80 89 C92 102 103 112 121 113 C127 113 132 112 137 112 C164 111 191 112 218 117 C235 120 248 117 262 108 C266 105 269 103 272 101 C274 99 275 98 277 97 C278 96 278 96 280 95 C286 90 292 86 298 81 C300 80 303 78 305 76 C320 66 334 55 350 45 C350 45 350 45 353 43 C355 42 357 41 360 41 C367 45 368 55 369 62 C371 76 371 89 371 103 C370 106 370 109 370 111 C370 117 370 122 370 127 C370 129 370 132 370 134 C370 151 369 169 365 186 C363 195 362 205 363 214 C364 224 362 229 358 238 C349 253 350 267 353 283 C355 293 356 303 356 313 C356 314 356 314 356 317 C356 327 357 337 357 347 C357 349 357 350 357 352 C357 359 357 365 358 372 C359 436 359 436 374 453 C389 467 412 474 432 476 C432 476 432 477 432 478 C432 478 431 478 430 478 C414 479 399 487 389 500 C384 506 380 514 380 522 C379 526 379 527 376 529 C367 537 363 548 363 559 C362 574 366 591 376 602 C379 605 379 607 379 612 C379 614 379 615 379 616 C379 617 379 617 378 619 C378 626 380 632 383 639 C385 643 384 646 383 650 C382 653 382 657 382 660 C382 661 382 662 381 663 C381 674 384 684 388 694 C388 695 388 697 389 698 C394 712 400 722 414 729 C419 732 424 733 430 733 C432 734 432 734 433 735 C434 737 434 739 434 742 C434 742 434 743 434 744 C434 746 434 748 434 751 C434 753 434 754 434 756 C434 759 434 763 434 766 C434 771 434 775 434 780 C434 783 434 786 434 790 C434 792 434 793 434 795 C434 797 434 799 434 802 C434 802 434 802 434 806 C433 809 433 809 432 810 C431 810 429 810 427 810 C417 812 406 816 399 824 C397 827 395 830 394 834 C393 835 393 835 393 836 C389 844 385 851 382 859 C382 859 382 859 381 861 C376 871 372 881 368 892 C367 895 366 898 364 901 C364 901 364 901 363 903 C363 904 363 904 362 905 C362 905 361 905 360 905 C358 901 358 898 358 894 C359 891 360 889 362 887 C362 885 363 884 364 883 C364 882 364 881 365 881 C366 878 367 875 368 873 C370 868 372 864 374 860 C386 839 397 811 390 787 C388 780 385 774 380 769 C376 765 373 760 371 755 C371 754 370 753 370 752 C367 747 365 742 363 738 C360 730 356 722 351 714 C351 713 350 712 350 712 C341 697 331 685 314 681 C299 678 288 681 275 689 C259 701 256 726 253 745 C252 753 250 761 249 769 C249 769 249 770 249 771 C249 777 248 782 248 787 C248 788 248 789 248 790 C247 797 247 804 247 811 C247 811 247 811 248 813 C248 836 252 859 257 882 C258 885 258 887 259 890 C259 891 259 892 259 892 C260 897 259 900 257 904 C256 908 256 911 256 915 C255 917 255 917 254 919 C252 919 249 919 247 919 C246 919 245 919 244 919 C242 919 239 919 236 919 C234 919 232 919 230 919 C212 919 195 920 177 920 C163 920 150 920 137 920 C128 920 119 920 109 920 C104 920 98 920 93 920 C87 920 82 921 77 920 C75 920 73 921 71 921 C66 921 61 921 55 919 C53 913 53 909 52 903 C52 901 52 900 52 898 C52 892 55 886 57 880 C65 858 70 835 72 812 C73 811 73 810 73 809 C76 778 72 747 65 717 C65 716 65 715 65 714 C62 700 58 687 46 679 C34 671 21 668 5 671 C-6 674 -14 680 -22 690 C-22 691 -23 691 -24 692 C-32 702 -38 711 -44 722 C-44 722 -44 722 -46 725 C-49 731 -52 738 -55 745 C-57 750 -60 755 -62 761 C-62 762 -63 763 -63 764 C-66 769 -68 773 -73 777 C-81 785 -83 798 -84 809 C-83 827 -73 844 -66 859 C-61 869 -57 878 -54 889 C-54 892 -54 892 -52 895 C-50 898 -50 899 -51 902 C-51 903 -51 903 -51 904 C-51 905 -51 906 -52 907 C-52 909 -52 911 -52 914 C-52 914 -52 915 -53 916 C-53 916 -54 916 -55 917 C-55 916 -55 915 -55 914 C-56 906 -58 899 -62 891 C-65 884 -68 878 -70 870 C-71 863 -74 858 -77 851 C-81 843 -84 835 -87 826 C-95 805 -95 805 -102 797 C-102 796 -102 796 -104 794 C-104 793 -105 792 -106 792 C-105 791 -105 791 -104 791 C-94 781 -88 765 -87 751 C-86 747 -87 742 -87 737 C-87 723 -86 710 -82 697 C-77 683 -74 669 -80 655 C-82 650 -82 646 -79 641 C-79 640 -79 640 -78 637 C-73 628 -72 619 -73 608 C-72 604 -69 600 -67 597 C-58 584 -56 569 -59 555 C-61 543 -68 532 -79 525 C-81 523 -81 521 -81 518 C-83 507 -88 496 -96 489 C-106 482 -117 475 -129 474 C-130 474 -131 474 -132 474 C-132 474 -133 474 -134 474 C-131 471 -129 471 -126 471 C-107 468 -91 462 -78 449 C-77 448 -76 447 -75 447 C-63 434 -57 417 -53 400 C-52 399 -52 398 -52 397 C-47 376 -46 353 -45 331 C-43 307 -39 285 -32 261 C-32 261 -32 260 -31 259 C-30 255 -29 250 -27 246 C-23 233 -24 216 -30 205 C-33 199 -33 196 -31 191 C-30 189 -30 188 -29 186 C-27 179 -27 172 -28 165 C-28 163 -28 161 -28 159 C-28 158 -28 157 -28 156 C-28 125 -25 96 -19 67 C-18 66 -18 65 -18 64 C-11 29 -11 29 -6 16 C-4 11 -3 7 -3 2 C-2 0 -2 0 0 0 Z " fill="white" transform="translate(135.03,-0.13)"/></g>
<path d="M0 0 C2 2 4 4 7 7 C7 7 7 7 11 10 C18 16 24 22 30 28 C37 35 43 41 51 48 C52 49 54 51 56 53 C62 59 62 59 64 60 C64 60 64 61 64 62 C64 62 65 62 67 63 C67 63 67 64 67 65 C67 65 68 65 69 65 C71 67 73 70 76 73 C78 75 80 77 83 80 C89 86 95 92 101 100 C104 99 108 98 112 98 C133 95 153 94 175 96 C176 96 178 96 180 96 C192 97 205 98 217 101 C217 102 217 102 221 102 C224 103 228 105 231 106 C240 109 243 104 249 98 C255 93 262 88 269 84 C269 83 269 83 273 80 C281 74 290 68 298 62 C302 59 306 56 310 53 C318 48 326 42 334 37 C337 35 340 33 343 30 C353 23 353 23 359 25 C369 46 366 77 366 100 C366 105 366 109 366 113 C366 141 363 167 354 193 C353 197 353 197 353 200 C355 200 357 201 360 202 C361 208 358 211 354 216 C351 220 351 223 351 228 C349 229 348 231 347 233 C343 240 344 243 346 252 C346 254 346 256 347 259 C347 261 348 263 349 266 C351 280 352 295 352 309 C352 313 352 317 352 320 C352 326 352 331 353 337 C354 429 354 429 391 450 C398 454 404 455 413 456 C414 457 414 457 414 462 C396 474 376 477 356 473 C361 484 366 494 374 505 C374 506 375 507 376 509 C370 514 361 510 355 509 C348 507 348 507 343 504 C342 504 341 504 341 504 C343 510 346 515 349 521 C357 540 362 561 362 582 C364 582 367 582 370 582 C375 588 375 588 375 594 C373 597 372 600 371 603 C369 609 372 611 376 617 C381 626 381 626 380 632 C376 636 376 636 374 636 C376 655 381 673 388 691 C391 699 390 706 390 715 C390 725 391 733 396 743 C402 762 400 779 395 799 C394 799 394 799 393 803 C388 820 380 836 373 853 C370 860 370 860 367 865 C362 881 362 881 355 883 C353 878 355 876 357 872 C359 868 361 864 363 859 C365 853 368 849 370 844 C394 797 400 752 374 706 C366 697 359 692 349 688 C350 690 351 692 353 695 C354 696 355 698 356 700 C359 706 363 711 368 717 C369 720 369 720 367 723 C367 724 368 725 369 727 C369 729 370 732 371 735 C373 741 373 741 375 742 C375 740 376 739 377 738 C378 743 378 743 378 750 C374 750 374 750 372 746 C371 745 370 743 370 742 C368 739 367 737 366 734 C364 730 362 725 360 721 C353 704 343 689 333 675 C329 669 326 663 322 658 C318 650 314 643 310 636 C309 635 308 634 307 632 C305 629 303 626 302 623 C300 630 300 637 300 644 C300 650 300 650 297 655 C291 655 291 655 286 650 C286 645 286 640 287 636 C287 631 287 627 287 623 C288 612 288 612 291 611 C292 611 294 612 296 613 C293 608 293 608 288 604 C285 600 283 596 282 593 C279 587 275 585 271 582 C270 582 269 582 269 583 C270 584 272 586 274 589 C281 603 273 625 270 640 C268 645 267 650 266 656 C264 666 261 675 258 685 C243 737 239 788 247 841 C248 843 248 844 248 846 C250 855 252 864 255 874 C255 876 255 879 256 882 C252 882 252 882 249 877 C248 873 247 869 246 866 C246 864 245 862 245 860 C244 858 244 856 244 854 C243 852 243 850 242 848 C240 836 237 824 236 811 C235 807 233 804 231 800 C228 794 227 788 226 782 C225 781 225 780 225 780 C225 777 225 774 225 772 C231 776 231 785 233 792 C233 794 234 796 235 799 C235 799 235 799 236 799 C235 797 235 796 235 794 C235 775 236 758 240 739 C240 737 240 735 241 734 C241 732 241 730 241 729 C242 724 240 721 238 717 C222 690 222 690 222 682 C221 682 220 682 219 682 C219 683 219 684 219 685 C219 691 219 696 219 702 C219 704 219 706 219 708 C219 719 220 730 220 741 C219 741 218 741 217 741 C214 730 214 719 214 709 C214 706 214 704 214 701 C214 696 214 691 214 685 C214 683 214 680 214 678 C214 677 214 677 214 671 C213 664 212 659 210 653 C209 653 208 653 208 653 C207 654 207 656 207 658 C207 659 207 659 207 665 C207 667 207 669 207 671 C206 678 206 678 206 685 C205 694 205 703 205 712 C205 714 205 717 205 720 C205 753 212 784 221 817 C221 818 222 820 222 822 C226 837 230 851 237 865 C237 866 238 868 239 870 C240 875 240 875 244 881 C242 881 241 882 240 883 C236 879 236 879 235 877 C231 878 231 878 225 884 C223 883 222 883 221 883 C223 878 226 875 230 872 C230 859 225 847 215 839 C213 838 212 837 210 837 C208 836 207 835 206 835 C194 828 182 823 169 823 C168 831 168 831 170 834 C171 834 172 835 174 835 C189 844 201 859 211 874 C210 874 210 875 210 876 C203 870 203 870 203 868 C202 868 201 868 201 868 C197 864 194 860 192 857 C185 848 179 842 169 841 C163 850 165 859 170 869 C174 878 174 878 176 884 C171 884 171 884 167 878 C166 875 164 871 163 868 C163 872 163 877 164 883 C160 882 160 882 158 877 C157 875 157 873 157 871 C156 869 156 867 156 866 C151 864 146 864 141 864 C140 864 140 864 135 864 C131 865 131 865 130 866 C129 866 129 866 129 870 C129 876 129 876 126 883 C124 882 123 882 122 882 C122 878 122 874 123 871 C121 872 121 872 119 875 C117 879 117 879 114 883 C112 883 111 883 110 883 C111 877 114 872 117 867 C122 858 122 853 121 843 C112 840 110 841 104 846 C103 846 102 846 102 846 C105 839 110 837 116 834 C116 834 117 834 119 834 C119 830 119 826 119 822 C110 821 103 823 95 827 C93 827 91 828 89 829 C86 833 86 833 85 839 C84 840 83 842 83 843 C82 845 81 846 81 848 C79 852 78 856 77 860 C76 862 75 864 74 866 C73 868 72 871 71 873 C71 875 70 877 69 879 C67 884 67 884 62 885 C62 878 63 874 66 869 C73 852 80 835 85 817 C85 815 85 815 86 810 C88 803 90 796 91 789 C92 785 93 781 95 777 C102 752 104 725 104 699 C104 697 104 696 104 694 C104 690 104 685 104 680 C104 677 104 674 104 670 C104 662 104 654 104 647 C103 647 102 647 102 647 C101 649 100 651 99 654 C99 655 99 657 98 658 C97 663 98 668 99 674 C98 678 98 683 98 687 C98 689 97 692 97 694 C97 700 96 705 95 711 C91 705 92 697 92 690 C92 689 92 687 92 685 C92 681 92 677 93 674 C92 674 91 674 91 674 C90 675 90 676 89 678 C87 684 85 690 82 696 C80 698 79 701 78 703 C74 710 74 710 73 712 C72 717 72 721 73 726 C77 744 77 761 76 779 C76 787 76 787 76 792 C77 798 75 803 74 809 C72 815 71 820 70 826 C67 840 64 853 60 867 C59 868 58 870 58 871 C54 883 54 883 49 886 C47 879 49 876 52 871 C54 864 56 857 58 850 C59 848 59 846 60 844 C63 832 65 821 67 809 C67 808 68 806 68 805 C74 766 69 727 60 690 C59 688 59 686 59 684 C57 677 55 671 54 665 C53 661 52 658 51 654 C50 648 48 643 47 637 C36 600 36 600 38 586 C42 582 42 582 44 582 C44 580 44 579 44 578 C32 578 29 588 24 597 C21 600 19 603 17 606 C16 606 16 607 16 609 C17 608 19 607 22 607 C25 610 24 615 25 619 C26 625 27 631 28 637 C29 643 29 646 24 651 C21 653 21 653 17 652 C10 642 11 627 11 616 C7 619 7 619 6 624 C5 624 4 624 4 624 C3 624 3 624 2 629 C0 632 -1 635 -3 638 C-9 646 -14 655 -20 663 C-28 676 -28 676 -33 681 C-38 686 -40 690 -44 697 C-44 698 -44 698 -47 703 C-54 713 -59 724 -63 736 C-64 738 -65 741 -67 744 C-67 746 -68 748 -70 750 C-73 756 -73 756 -77 758 C-79 755 -78 746 -78 743 C-76 737 -73 733 -71 729 C-70 729 -70 729 -70 729 C-70 734 -71 737 -73 743 C-73 743 -73 744 -73 745 C-68 739 -67 734 -67 728 C-67 727 -67 726 -68 726 C-63 717 -58 709 -53 702 C-46 691 -46 691 -46 689 C-55 692 -62 696 -69 705 C-69 705 -69 705 -72 708 C-73 711 -74 715 -76 719 C-76 720 -77 722 -78 724 C-83 733 -86 743 -89 754 C-89 756 -90 758 -90 760 C-96 792 -79 825 -65 852 C-62 858 -61 863 -61 870 C-59 874 -57 878 -55 882 C-55 883 -55 884 -55 886 C-59 886 -59 886 -62 883 C-71 863 -71 863 -72 855 C-74 848 -76 843 -79 837 C-83 830 -86 822 -89 815 C-89 813 -90 811 -91 809 C-99 787 -101 770 -93 747 C-89 737 -88 730 -91 719 C-91 709 -91 701 -89 692 C-88 690 -88 689 -87 687 C-85 681 -83 674 -81 667 C-78 658 -76 649 -76 640 C-77 640 -79 640 -82 640 C-83 639 -83 639 -86 634 C-85 627 -83 623 -79 618 C-73 609 -73 604 -77 595 C-77 588 -76 586 -72 582 C-69 582 -67 582 -65 582 C-65 579 -65 577 -65 575 C-62 554 -56 533 -46 515 C-44 509 -43 506 -44 500 C-45 500 -45 500 -50 503 C-61 508 -72 512 -84 508 C-84 507 -84 507 -85 505 C-82 501 -79 498 -76 496 C-69 487 -64 477 -60 468 C-61 468 -62 468 -63 469 C-83 472 -107 471 -123 457 C-123 455 -123 454 -123 453 C-121 452 -120 452 -119 452 C-89 446 -71 426 -61 399 C-51 370 -49 341 -48 312 C-47 295 -46 275 -40 260 C-39 256 -38 252 -37 248 C-34 239 -32 231 -28 224 C-24 213 -24 213 -28 208 C-30 205 -30 205 -29 201 C-28 196 -30 194 -32 189 C-37 183 -37 183 -37 178 C-31 176 -31 176 -28 176 C-28 175 -28 175 -28 171 C-35 130 -30 87 -22 48 C-21 44 -20 41 -20 38 C-11 -1 -11 -1 0 0 Z M-5 6 C-10 16 -12 27 -15 39 C-15 40 -15 40 -16 45 C-20 64 -23 82 -25 102 C-25 103 -25 105 -26 107 C-27 133 -26 159 -20 185 C-25 183 -25 183 -28 183 C-28 183 -29 184 -30 186 C-27 190 -24 194 -22 199 C-21 199 -21 199 -20 204 C-20 204 -21 204 -23 205 C-21 210 -19 213 -16 218 C-13 224 -13 224 -13 227 C-17 226 -17 226 -21 222 C-37 238 -39 283 -42 305 C-42 307 -42 309 -42 312 C-43 323 -45 334 -45 346 C-45 357 -46 367 -51 378 C-51 380 -51 382 -51 384 C-53 391 -55 396 -58 403 C-58 405 -59 407 -59 409 C-67 432 -87 450 -111 457 C-108 462 -94 463 -89 464 C-70 465 -57 465 -46 449 C-45 449 -45 449 -45 449 C-49 462 -56 474 -64 487 C-65 489 -66 491 -67 493 C-70 498 -70 498 -74 501 C-73 501 -73 501 -73 504 C-50 500 -34 490 -24 468 C-23 464 -23 464 -23 462 C-22 462 -21 462 -21 462 C-21 468 -22 472 -25 477 C-26 479 -27 480 -27 481 C-29 485 -31 489 -34 492 C-37 498 -37 498 -37 501 C-32 499 -32 499 -26 494 C-21 492 -17 491 -13 490 C-10 487 -12 480 -13 477 C-13 476 -13 476 -14 474 C-14 471 -14 469 -14 466 C-15 459 -15 459 -17 455 C-17 452 -17 449 -17 446 C-17 444 -17 442 -17 440 C-17 438 -17 436 -17 435 C-17 433 -17 431 -17 429 C-18 420 -17 411 -17 402 C-16 394 -17 388 -19 381 C-20 380 -20 378 -21 376 C-21 375 -22 373 -23 372 C-23 370 -23 370 -25 365 C-30 367 -29 382 -30 388 C-29 395 -29 402 -29 410 C-34 408 -34 400 -36 395 C-36 393 -37 391 -37 389 C-44 361 -41 330 -34 303 C-33 300 -32 298 -32 295 C-24 267 -10 238 8 216 C12 211 12 211 12 209 C12 209 13 209 14 209 C14 207 15 206 16 205 C26 192 38 183 51 174 C56 170 56 170 60 167 C59 163 59 163 56 156 C55 153 55 151 54 149 C52 137 47 125 43 114 C42 112 42 112 40 106 C37 100 36 98 31 95 C30 94 30 93 30 93 C31 93 32 93 34 93 C28 69 13 38 -1 19 C-0 18 -0 17 0 16 C16 32 24 59 33 80 C35 84 36 87 38 91 C41 97 43 104 46 111 C46 111 46 111 48 116 C52 127 56 138 59 149 C61 156 61 156 65 164 C70 162 75 160 80 158 C85 156 91 154 97 153 C98 152 100 151 103 151 C107 150 113 150 118 151 C118 151 118 151 118 152 C116 152 115 152 113 152 C42 167 -3 222 -25 288 C-35 319 -39 350 -36 383 C-35 383 -34 383 -33 384 C-32 382 -32 380 -32 378 C-30 366 -28 355 -25 343 C-23 339 -23 335 -23 331 C-22 331 -21 331 -21 331 C-21 332 -21 334 -21 336 C-21 351 -20 365 -17 380 C-16 381 -16 383 -15 385 C-10 399 -4 410 4 423 C4 423 5 423 6 423 C6 424 7 425 8 427 C13 432 13 432 15 432 C15 432 15 433 15 434 C16 434 17 434 19 435 C18 430 18 430 15 425 C13 420 13 420 13 413 C13 414 14 416 16 419 C17 421 19 423 20 426 C22 428 23 430 25 433 C25 432 26 432 28 432 C31 412 30 392 28 373 C26 328 26 328 33 312 C33 310 33 308 33 306 C34 302 34 302 36 298 C37 293 38 288 39 284 C40 280 40 280 42 277 C42 275 43 273 44 271 C45 265 45 265 48 264 C47 266 46 268 45 271 C44 273 43 276 43 279 C42 279 42 279 42 280 C40 284 39 289 39 294 C38 299 38 299 36 303 C35 307 34 311 34 316 C33 317 33 319 33 321 C32 325 32 329 32 333 C32 336 32 338 32 341 C32 343 32 346 32 349 C32 351 32 354 32 357 C32 363 32 370 33 377 C40 377 43 369 47 364 C49 360 51 357 54 355 C55 353 56 352 57 350 C59 347 62 344 65 340 C69 335 73 329 77 323 C79 320 82 316 84 313 C99 292 110 273 113 248 C114 243 116 238 118 234 C118 233 118 232 118 232 C118 232 119 232 120 232 C119 233 119 235 119 236 C114 266 109 301 118 332 C119 333 121 334 123 336 C130 342 131 347 131 357 C131 360 131 363 132 366 C132 366 133 366 134 367 C139 361 138 356 138 348 C142 350 141 356 142 360 C143 365 143 365 145 370 C148 374 148 374 149 382 C151 398 163 411 173 424 C173 424 174 424 176 425 C176 421 176 418 176 414 C176 412 176 410 176 408 C175 402 174 399 172 395 C171 391 170 387 170 383 C169 382 169 381 169 381 C168 377 168 374 168 370 C167 360 167 360 166 357 C165 353 165 350 165 346 C165 344 165 343 165 341 C165 340 165 340 166 337 C166 337 166 337 166 341 C172 387 172 387 177 397 C177 397 178 397 179 397 C179 395 179 393 179 391 C180 390 180 390 181 385 C181 383 181 381 182 378 C184 371 187 367 194 364 C194 365 195 366 196 368 C196 368 197 368 198 368 C198 365 198 363 198 361 C199 353 200 343 208 340 C225 322 215 264 213 242 C213 242 214 242 215 242 C215 242 215 242 215 246 C216 251 216 251 218 255 C218 258 218 262 218 266 C219 277 221 284 226 294 C227 296 228 299 229 301 C234 310 239 319 244 329 C245 331 246 333 247 336 C251 341 251 341 258 343 C260 347 262 351 264 356 C268 365 273 373 280 381 C280 381 281 381 282 381 C282 378 282 375 282 373 C282 368 282 365 284 361 C284 338 283 316 279 294 C279 294 280 294 281 294 C281 295 281 296 281 298 C282 302 282 302 284 307 C284 311 285 316 286 322 C286 322 286 323 287 324 C287 329 287 334 287 339 C287 341 287 342 287 344 C288 375 288 375 286 386 C285 393 285 394 291 400 C291 403 291 403 291 408 C291 408 291 408 291 412 C290 414 290 416 290 417 C290 418 290 418 290 422 C290 426 290 430 290 435 C295 433 295 431 298 427 C298 425 299 424 300 423 C302 420 302 420 303 417 C303 417 304 417 306 417 C302 427 302 427 300 431 C300 431 300 432 300 434 C320 423 330 385 333 364 C333 359 333 354 333 349 C334 345 334 345 335 340 C337 349 338 357 338 367 C338 368 338 370 338 371 C339 378 338 384 338 390 C339 394 339 394 341 396 C346 380 347 366 347 349 C347 348 347 346 347 344 C347 327 345 312 341 295 C340 293 340 291 339 289 C336 280 333 271 330 262 C329 261 329 261 328 258 C321 240 312 225 301 211 C299 209 298 207 297 205 C277 182 251 167 223 158 C239 159 251 164 265 173 C266 173 267 173 269 174 C271 168 274 163 276 158 C280 150 285 141 290 133 C292 128 295 123 298 118 C300 112 303 107 307 102 C307 100 308 98 309 97 C314 89 318 81 324 74 C325 72 326 70 327 68 C340 49 340 49 348 42 C348 42 349 42 350 43 C349 43 349 43 347 46 C327 74 327 74 319 89 C318 90 317 91 316 93 C315 95 314 96 313 98 C312 99 311 100 310 102 C309 106 309 106 310 109 C310 109 311 109 312 110 C310 110 309 111 308 111 C303 114 302 116 299 121 C298 122 298 124 297 125 C296 127 296 128 295 130 C294 131 293 133 293 134 C291 137 290 140 288 143 C287 146 285 149 284 152 C282 156 282 156 280 162 C279 162 279 162 277 167 C274 173 274 173 273 177 C286 190 286 190 291 192 C291 192 291 193 292 195 C292 195 293 195 294 195 C294 196 295 197 296 199 C297 200 299 202 300 204 C305 209 309 215 314 222 C314 223 314 223 318 228 C324 239 330 249 334 262 C334 263 335 264 335 266 C338 272 340 278 341 285 C343 289 343 289 345 290 C345 275 343 259 338 246 C337 246 336 247 335 249 C334 249 333 249 333 249 C333 247 333 245 333 243 C333 243 334 243 335 243 C344 230 344 230 344 228 C343 227 342 227 342 227 C342 225 342 223 342 222 C343 221 344 220 346 220 C354 209 354 209 353 206 C350 206 347 206 345 207 C345 205 345 204 346 203 C356 170 361 137 361 102 C361 100 361 99 361 97 C361 85 360 74 360 62 C360 61 359 60 359 58 C358 35 358 35 354 31 C352 31 351 32 350 33 C347 35 344 37 341 39 C332 45 323 51 314 58 C311 59 308 61 306 63 C304 64 303 65 302 66 C299 68 296 69 294 71 C276 83 259 96 244 111 C242 112 241 113 240 114 C235 119 231 124 228 130 C227 129 226 129 225 129 C226 127 227 125 228 123 C231 118 231 118 234 114 C212 105 191 101 169 102 C165 102 165 102 159 101 C141 99 123 101 106 107 C107 111 107 111 110 116 C113 121 113 121 114 125 C113 125 112 125 111 125 C110 123 109 122 109 121 C96 100 79 82 61 65 C60 64 58 62 57 60 C55 59 53 57 52 56 C50 54 49 53 48 51 C44 48 40 44 36 41 C33 38 30 36 28 34 C24 30 20 26 16 23 C12 19 9 16 6 13 C-1 6 -1 6 -5 6 Z M107 287 C106 287 105 288 105 289 C97 302 89 314 80 325 C78 329 78 329 78 332 C79 332 81 333 84 334 C84 334 85 335 86 336 C91 334 92 330 96 326 C97 325 97 325 104 325 C107 328 109 331 112 336 C112 335 113 335 114 335 C113 329 113 324 111 318 C110 310 110 301 110 293 C110 291 110 289 110 288 C109 287 108 287 107 287 Z M220 297 C219 300 219 300 218 307 C218 315 217 323 215 331 C215 336 215 336 216 341 C216 341 217 341 218 341 C222 333 222 333 222 331 C227 329 227 329 234 330 C239 336 239 336 242 343 C242 343 243 343 245 343 C243 333 237 324 232 316 C230 312 227 307 225 303 C224 301 223 299 222 297 C221 297 220 297 220 297 Z M93 336 C88 344 85 353 82 362 C81 366 79 370 77 373 C73 385 71 396 71 409 C70 415 69 421 68 427 C67 424 67 424 69 421 C68 417 68 413 68 410 C68 394 69 382 76 368 C76 365 77 363 78 361 C79 359 80 357 81 356 C83 350 84 347 84 341 C81 338 81 338 76 339 C57 361 48 388 47 417 C47 423 47 423 46 428 C44 434 44 440 44 447 C44 449 44 451 44 453 C44 455 44 457 44 459 C39 456 40 454 40 449 C40 445 40 441 41 438 C45 403 45 403 40 394 C36 393 36 393 35 394 C35 396 35 398 35 401 C35 409 35 409 34 414 C31 447 36 473 56 501 C57 503 58 506 60 509 C61 511 63 514 66 517 C70 523 73 528 70 536 C69 537 69 537 67 543 C65 546 64 549 62 552 C51 577 51 577 47 584 C42 593 44 600 46 609 C46 610 46 610 47 615 C47 617 48 619 49 622 C49 624 50 626 50 628 C52 637 54 645 57 654 C59 661 61 669 62 677 C64 686 67 695 70 705 C74 701 75 697 78 692 C79 690 80 688 81 686 C82 684 83 682 84 680 C84 679 84 679 86 674 C88 669 90 664 92 659 C94 652 97 646 100 640 C101 636 102 632 104 628 C106 623 108 618 110 614 C111 609 113 604 115 600 C115 599 116 597 116 596 C119 590 121 583 124 576 C127 570 127 570 129 564 C132 560 132 560 133 553 C136 544 139 537 144 530 C153 509 152 482 148 461 C145 444 145 427 146 410 C146 377 146 377 140 369 C135 370 135 370 132 374 C131 377 131 381 131 385 C130 386 130 387 130 388 C128 393 128 398 127 402 C127 404 127 406 127 408 C127 410 127 412 126 414 C126 416 126 418 126 420 C125 425 125 430 125 435 C124 435 123 435 123 435 C122 421 122 408 124 394 C125 383 126 371 126 360 C126 359 126 359 126 355 C126 344 126 344 122 340 C114 341 114 344 111 352 C109 357 108 363 107 369 C106 370 106 372 105 374 C103 386 100 398 99 410 C99 411 99 411 99 417 C99 418 99 418 98 423 C98 428 98 428 94 430 C94 429 94 429 95 427 C95 422 95 417 95 413 C95 395 99 379 103 362 C107 351 110 338 103 329 C97 329 96 331 93 336 Z M227 333 C220 342 221 350 223 361 C224 364 224 366 224 369 C225 373 226 376 226 380 C230 397 228 415 228 433 C227 433 226 433 226 433 C225 430 225 427 225 425 C224 402 222 379 218 357 C217 355 217 353 217 351 C216 347 216 347 212 344 C207 346 207 346 204 350 C202 359 202 369 202 379 C202 380 202 381 202 383 C202 387 202 391 203 396 C203 402 203 407 203 413 C203 416 203 418 203 421 C202 437 202 437 199 440 C199 438 199 438 199 432 C199 403 199 403 198 389 C198 387 198 386 198 384 C197 379 196 376 194 372 C189 373 189 373 187 376 C186 380 185 384 185 389 C184 390 184 391 184 393 C182 403 181 414 180 424 C180 426 180 428 180 429 C179 431 179 433 179 434 C179 439 179 439 177 446 C176 447 176 448 176 450 C175 454 174 459 173 464 C167 489 164 520 179 543 C182 547 182 551 183 557 C183 558 184 560 186 563 C187 567 189 571 190 576 C191 579 192 581 193 584 C193 585 194 587 194 588 C196 595 199 602 201 610 C202 612 203 615 204 618 C204 619 205 620 205 622 C213 646 213 646 215 651 C229 692 229 692 240 709 C240 710 241 712 243 715 C246 714 246 714 246 710 C247 708 247 706 248 705 C249 700 250 696 251 693 C253 684 256 675 258 666 C259 662 260 658 261 654 C263 646 265 638 267 629 C267 626 268 623 269 620 C272 605 270 595 263 582 C258 570 253 559 249 547 C248 543 248 543 245 537 C245 530 247 527 250 521 C251 519 252 518 253 516 C257 511 261 505 264 500 C279 478 284 458 285 432 C285 424 286 417 286 410 C286 408 286 406 287 404 C286 403 286 403 283 402 C277 407 277 410 278 418 C278 420 278 422 278 424 C278 429 278 433 278 438 C278 440 278 442 278 444 C278 446 278 448 278 450 C277 456 276 461 275 467 C274 467 273 467 273 468 C273 454 273 454 275 452 C275 446 274 441 274 436 C273 433 273 430 273 427 C273 425 273 424 273 422 C273 418 273 415 273 412 C273 397 271 384 265 371 C263 366 261 361 260 357 C256 348 256 348 254 346 C249 347 249 347 245 350 C245 350 245 350 246 354 C247 358 248 363 248 368 C250 374 252 381 254 388 C256 402 255 417 254 432 C251 428 251 425 251 420 C251 419 251 417 251 415 C251 412 251 409 251 405 C251 395 250 386 247 377 C246 373 245 370 244 366 C241 355 239 344 233 334 C231 333 229 333 227 333 Z M43 375 C41 379 41 379 36 384 C36 384 36 385 36 387 C42 389 42 389 46 389 C46 387 46 386 47 385 C49 379 52 374 55 368 C60 359 60 359 60 356 C54 356 46 370 43 375 Z M334 379 C333 381 332 383 332 385 C329 394 326 403 321 411 C316 421 317 432 317 442 C317 444 317 446 317 449 C317 465 317 465 323 472 C323 473 324 475 324 476 C330 490 341 500 356 504 C359 504 362 504 366 505 C365 500 365 500 362 495 C356 488 352 479 349 471 C348 470 348 470 346 466 C345 462 345 462 346 459 C347 460 349 462 351 464 C367 473 386 471 403 463 C403 462 403 461 403 460 C402 459 402 459 399 459 C372 452 357 424 351 399 C350 397 350 395 350 393 C350 392 350 391 350 390 C349 389 348 389 347 389 C346 390 346 391 345 393 C345 393 345 393 344 398 C343 400 343 401 342 403 C341 408 338 413 336 418 C336 418 336 419 336 420 C335 420 334 420 333 420 C333 418 333 416 334 414 C337 402 336 390 336 379 C335 379 334 379 334 379 Z M274 382 C271 386 276 393 278 398 C278 397 279 397 281 397 C280 389 280 388 275 382 C274 382 274 382 274 382 Z M151 403 C150 407 150 411 150 415 C150 418 150 420 149 423 C150 429 150 429 153 431 C153 429 154 428 154 427 C157 424 157 424 161 421 C161 421 161 422 161 423 C160 423 159 423 159 423 C152 432 149 438 151 450 C153 456 153 462 153 469 C154 473 154 473 155 477 C155 493 155 509 150 526 C151 528 151 528 157 530 C157 530 158 530 160 531 C160 530 161 529 163 528 C163 527 163 527 167 526 C166 523 166 521 166 519 C162 474 162 474 170 460 C170 458 170 458 170 452 C171 446 172 441 175 436 C173 428 168 425 164 420 C161 416 159 413 158 410 C153 403 153 403 151 403 Z M-14 404 C-15 443 -13 496 8 531 C8 531 9 531 10 531 C8 524 7 519 6 513 C6 511 6 509 6 508 C6 507 6 507 8 507 C8 508 8 509 8 510 C11 523 18 534 26 544 C26 544 26 544 28 547 C34 554 40 560 48 566 C48 565 49 565 51 565 C49 557 47 549 46 542 C45 540 45 538 45 535 C44 534 44 532 44 531 C47 532 47 532 49 536 C49 536 50 536 51 536 C50 529 49 523 48 516 C46 510 45 504 45 498 C44 491 42 487 39 482 C34 473 31 464 30 455 C28 449 26 447 21 444 C18 442 18 442 13 436 C11 434 10 433 9 432 C0 425 -5 416 -11 406 C-11 405 -12 404 -14 404 Z M305 437 C300 442 297 445 291 449 C287 455 286 461 285 468 C281 483 273 495 265 508 C260 514 260 515 261 523 C264 520 264 520 265 515 C265 514 265 514 268 514 C266 521 264 529 262 536 C262 537 262 537 261 541 C260 545 260 545 257 550 C257 556 258 561 262 567 C272 561 277 550 283 541 C284 538 285 536 286 534 C289 530 291 525 293 521 C295 515 295 515 297 514 C296 515 296 517 296 519 C295 523 294 527 294 532 C302 529 306 506 308 498 C312 475 315 451 315 428 C309 428 307 433 305 437 Z M295 439 C296 441 296 441 296 441 Z M316 469 C315 471 315 474 314 477 C314 479 314 481 314 482 C314 487 314 487 317 490 C326 495 326 495 330 494 C328 489 328 489 325 483 C322 478 322 478 319 471 C318 470 318 469 318 469 C317 469 316 469 316 469 Z M312 498 C310 501 309 505 308 509 C305 523 298 536 290 549 C286 550 286 550 283 548 C282 550 282 550 282 554 C282 562 281 570 280 578 C281 583 281 583 284 585 C288 579 288 579 290 574 C290 572 291 571 291 570 C294 565 296 560 298 556 C298 555 298 555 299 555 C298 560 296 564 294 570 C293 571 292 573 292 576 C291 577 290 578 289 580 C286 589 288 594 294 602 C295 604 297 606 300 609 C300 610 301 611 302 613 C306 612 306 612 309 609 C310 608 311 607 313 606 C317 604 321 601 321 596 C326 596 326 596 328 598 C330 597 332 597 335 597 C334 593 334 593 329 588 C331 583 331 583 336 579 C344 580 345 583 351 590 C351 590 352 591 354 593 C354 592 355 592 357 592 C355 560 351 519 325 499 C314 493 314 493 312 498 Z M-39 513 C-40 515 -41 517 -42 519 C-42 520 -43 522 -45 523 C-55 545 -60 570 -60 594 C-52 592 -49 585 -45 580 C-37 580 -37 580 -35 583 C-35 590 -35 590 -36 594 C-36 594 -36 594 -41 596 C-41 596 -41 597 -42 599 C-36 601 -36 601 -31 602 C-31 598 -32 594 -33 591 C-32 590 -32 590 -27 590 C-26 592 -26 592 -25 596 C-24 604 -20 606 -13 610 C-12 611 -10 611 -9 612 C-6 614 -6 614 -3 613 C-3 611 -3 610 -4 609 C-3 607 -2 605 -2 604 C2 605 2 605 6 609 C12 605 14 601 16 594 C15 592 14 590 13 589 C11 584 9 580 8 576 C7 575 7 574 7 574 C7 572 7 570 7 568 C10 575 14 582 17 591 C18 591 19 591 21 591 C21 579 20 569 19 558 C19 558 20 558 21 558 C22 563 23 567 24 573 C24 574 24 576 24 578 C24 579 24 580 25 582 C29 581 29 581 33 576 C38 572 39 572 46 574 C46 566 35 560 30 556 C27 553 25 550 23 547 C22 547 22 547 21 548 C21 549 21 551 21 553 C4 547 -3 515 -7 500 C-9 497 -9 497 -10 496 C-23 496 -32 503 -39 513 Z M52 508 C52 509 52 510 53 512 C53 512 54 512 55 512 C54 510 54 509 54 508 C53 508 52 508 52 508 Z M54 519 C50 528 54 537 59 545 C64 540 64 537 65 531 C63 531 61 531 60 531 C59 529 59 527 59 526 C56 520 56 520 54 519 Z M156 531 C148 532 148 532 143 539 C142 541 141 544 141 547 C140 548 139 550 139 551 C138 555 137 559 136 563 C135 563 135 563 134 566 C134 572 136 576 139 582 C140 583 140 583 142 587 C146 594 146 594 150 594 C156 586 162 578 167 570 C170 564 173 559 177 555 C177 547 175 544 172 538 C171 536 170 534 169 532 C164 532 160 531 156 531 Z M252 539 C252 540 252 542 252 544 C252 544 253 544 255 545 C257 540 257 540 257 535 C255 535 255 535 252 539 Z M289 539 C288 540 287 542 287 544 C287 543 288 542 290 542 C289 541 289 540 289 539 Z M52 545 C52 548 53 552 54 556 C54 556 55 556 57 556 C59 552 59 552 59 546 C57 546 55 546 54 546 C53 545 52 545 52 545 Z M273 562 C269 567 269 567 267 568 C267 568 267 569 267 570 C266 570 265 570 264 571 C265 576 267 576 273 578 C273 578 274 578 276 578 C276 571 277 565 278 559 C277 559 277 559 273 562 Z M177 560 C171 568 171 568 169 572 C166 576 163 580 160 584 C155 592 155 592 153 597 C152 597 151 597 151 597 C148 599 146 602 144 606 C143 606 142 607 142 608 C142 612 144 615 147 620 C151 620 152 616 154 612 C157 607 161 602 164 596 C168 590 172 584 176 578 C177 576 178 574 179 572 C182 568 182 568 181 561 C179 560 178 560 177 560 Z M130 574 C127 581 127 586 132 593 C132 594 133 596 134 597 C137 602 137 602 139 604 C143 603 143 603 145 600 C143 592 140 588 137 582 C136 581 136 581 134 577 C132 574 132 574 130 574 Z M183 574 C179 579 176 584 174 589 C170 596 165 603 161 610 C160 610 160 610 157 614 C153 620 149 627 145 633 C133 649 122 665 113 683 C112 683 111 684 111 686 C110 689 110 692 110 695 C110 697 110 699 109 701 C109 704 109 706 109 708 C108 726 106 744 104 762 C103 764 103 767 103 771 C110 763 115 753 120 743 C127 731 134 719 142 707 C143 705 144 702 146 700 C148 696 151 691 154 687 C160 678 165 668 171 659 C175 652 179 645 185 638 C187 634 189 630 191 627 C191 626 191 626 194 621 C199 612 196 608 193 598 C189 585 189 585 187 579 C186 575 186 575 183 574 Z M-48 590 C-59 602 -59 602 -63 602 C-63 600 -63 599 -63 598 C-66 589 -66 589 -70 588 C-73 591 -71 595 -70 600 C-68 605 -68 605 -66 606 C-67 610 -68 612 -71 616 C-80 626 -80 626 -80 633 C-74 631 -73 628 -69 623 C-64 616 -64 616 -61 616 C-60 618 -59 620 -58 623 C-54 631 -54 631 -53 634 C-52 633 -52 633 -49 633 C-47 624 -53 618 -58 612 C-55 606 -52 604 -48 600 C-45 597 -43 594 -41 592 C-40 591 -39 590 -39 590 C-39 589 -39 589 -40 584 C-44 584 -45 586 -48 590 Z M336 585 C336 590 336 590 342 595 C343 596 344 598 346 600 C347 600 348 601 349 603 C353 606 353 606 353 611 C350 615 348 619 346 623 C343 629 343 629 343 633 C348 631 348 629 351 625 C352 623 353 622 353 621 C355 618 356 616 358 614 C362 614 362 614 365 619 C367 622 370 626 373 630 C373 629 374 629 375 629 C373 620 369 614 364 609 C365 604 365 604 367 597 C370 592 370 592 368 588 C361 589 361 593 360 599 C360 599 360 600 360 601 C352 596 346 590 341 584 C337 584 337 584 336 585 Z M124 590 C121 596 119 602 116 609 C116 610 116 610 114 614 C113 616 113 618 112 619 C111 621 111 623 110 624 C107 633 108 637 114 645 C115 646 116 648 117 649 C118 651 119 652 120 654 C120 654 121 655 122 657 C126 657 127 653 129 649 C132 644 136 639 140 633 C144 627 145 625 142 618 C141 617 140 615 139 614 C138 612 138 611 137 609 C135 606 135 606 132 602 C130 600 129 598 128 596 C126 591 126 591 124 590 Z M334 602 C331 602 329 602 327 603 C325 605 325 605 325 609 C332 608 336 608 343 605 C342 603 342 601 342 600 C338 599 338 599 334 602 Z M-49 607 C-48 610 -48 610 -41 612 C-40 612 -40 612 -35 612 C-27 613 -24 615 -18 620 C-15 620 -13 621 -11 623 C-10 623 -10 623 -6 627 C-1 626 -1 626 0 625 C0 623 0 621 0 619 C-4 617 -4 617 -8 615 C-14 614 -14 614 -20 610 C-25 608 -29 607 -36 606 C-36 605 -37 604 -39 604 C-43 604 -43 604 -49 607 Z M319 606 C318 606 318 606 317 609 C315 609 314 610 313 611 C310 613 310 613 309 616 C308 616 307 616 307 616 C306 620 306 620 307 621 C314 619 318 617 324 613 C324 609 324 609 319 606 Z M340 612 C339 612 339 612 334 612 C330 613 330 613 327 616 C330 619 330 619 336 619 C336 620 336 622 336 624 C333 624 330 625 327 627 C326 625 326 623 326 622 C322 620 322 620 316 622 C312 626 312 626 312 631 C312 631 312 631 317 637 C317 638 317 638 322 647 C323 649 325 652 327 655 C327 656 328 658 329 659 C332 663 332 663 336 665 C336 664 336 664 337 664 C340 663 345 663 349 664 C344 664 340 665 336 666 C337 676 344 682 354 686 C361 689 367 694 373 701 C373 701 374 701 375 701 C375 702 376 703 377 705 C379 708 380 711 384 715 C386 714 386 714 386 709 C385 697 381 686 377 675 C373 662 370 649 368 636 C366 630 365 626 362 621 C356 622 356 624 353 628 C347 638 347 638 342 638 C338 633 338 633 339 627 C340 624 341 622 342 620 C346 615 346 615 345 610 C344 610 344 610 340 612 Z M19 613 C13 616 15 621 15 626 C16 633 17 639 19 646 C20 646 21 646 23 646 C24 639 23 633 22 627 C21 624 21 622 21 620 C21 615 21 615 19 613 Z M-49 618 C-44 627 -44 627 -41 629 C-41 627 -41 625 -41 623 C-40 622 -39 621 -39 620 C-39 618 -39 617 -40 616 C-46 615 -46 615 -49 618 Z M-35 616 C-35 617 -35 618 -35 620 C-33 619 -32 618 -31 618 C-31 617 -31 616 -32 616 C-32 616 -33 616 -35 616 Z M293 620 C291 629 290 639 291 649 C292 649 293 649 295 649 C298 639 297 628 296 619 C294 619 294 619 293 620 Z M-29 621 C-29 621 -29 622 -30 624 C-31 624 -33 625 -35 626 C-39 629 -39 629 -40 634 C-44 637 -48 639 -54 641 C-57 637 -57 634 -59 630 C-59 628 -60 626 -62 624 C-66 625 -66 625 -69 632 C-70 638 -71 644 -70 651 C-71 657 -71 659 -75 664 C-76 668 -77 673 -79 678 C-79 680 -80 683 -81 686 C-85 697 -86 709 -84 721 C-83 721 -82 721 -82 722 C-81 720 -80 718 -79 717 C-77 712 -77 712 -74 710 C-73 709 -73 709 -72 705 C-70 699 -69 697 -64 694 C-62 693 -61 692 -60 691 C-55 688 -50 686 -45 684 C-37 680 -34 677 -30 670 C-28 668 -27 666 -26 664 C-25 662 -24 660 -23 659 C-21 656 -20 654 -18 651 C-17 650 -16 649 -16 648 C-14 645 -12 642 -9 639 C-7 635 -7 635 -8 631 C-9 630 -11 629 -13 628 C-14 626 -16 625 -18 624 C-24 621 -24 621 -29 621 Z M198 621 C197 621 196 622 196 623 C186 642 175 660 163 678 C152 696 141 714 131 733 C129 735 128 737 127 739 C124 743 122 746 121 750 C116 757 112 764 107 771 C103 778 103 783 104 791 C107 794 115 791 119 790 C125 789 125 789 132 786 C135 785 139 784 142 783 C148 781 155 779 161 777 C165 777 165 777 169 777 C166 779 166 779 159 780 C156 780 154 781 152 783 C145 785 138 787 132 789 C129 790 126 791 124 793 C124 793 124 793 124 794 C140 794 156 794 173 794 C172 793 172 792 172 791 C173 791 175 791 177 791 C203 793 203 793 208 791 C206 781 204 771 202 761 C200 747 200 733 200 718 C200 717 200 717 200 713 C200 679 200 679 203 669 C203 665 203 661 204 657 C204 646 204 646 205 640 C206 633 203 628 201 622 C200 621 199 621 198 621 Z M109 643 C107 648 108 653 108 658 C108 659 108 659 109 664 C109 668 110 672 111 676 C111 676 112 676 113 676 C114 672 116 669 118 666 C118 665 119 664 120 664 C120 657 117 655 114 650 C113 648 112 647 111 645 C111 644 110 643 110 643 C109 643 109 643 109 643 Z M96 799 C92 808 92 808 94 813 C95 813 97 813 98 813 C105 814 105 814 110 815 C117 816 120 816 127 813 C133 812 138 812 145 814 C146 813 147 813 149 813 C158 812 158 812 162 815 C167 817 170 817 176 816 C178 816 180 815 182 815 C188 814 194 814 201 813 C202 812 204 812 206 812 C211 812 211 812 212 811 C211 805 210 801 209 797 C206 797 204 797 202 797 C172 798 141 798 110 797 C99 796 99 796 96 799 Z M124 821 C123 828 125 835 126 842 C126 842 126 842 126 846 C127 851 127 851 129 858 C135 859 139 860 145 860 C147 860 148 860 150 860 C155 860 155 860 159 856 C162 844 166 829 161 819 C156 816 153 816 149 817 C148 817 147 818 147 819 C142 819 142 819 140 817 C128 816 128 816 124 821 Z M201 817 C200 817 200 817 195 817 C193 818 191 818 190 819 C189 819 189 820 189 822 C189 822 189 822 194 823 C200 825 204 827 209 830 C215 834 215 834 219 834 C218 832 218 830 218 828 C217 826 217 824 217 822 C214 813 209 816 201 817 Z M90 819 C90 819 90 820 90 822 C92 821 95 821 98 821 C98 820 98 819 98 818 C92 818 92 818 90 819 Z " fill="#000000" transform="translate(139,17)"/>
</svg>
