<?xml version="1" encoding="UTF-8"?>
<!-- Generator: visioncortex VTracer 0.12 -->
<svg version="1" xmlns="http://www.w3.org/2000/svg" viewBox="0 0 2164 3341" width="2164" height="3341">
<g transform="translate(0.00 0.00) scale(3.00)" fill="white"><path d="M0 0 C7 0 15 0 24 0 C24 65 24 130 24 196 C24 197 24 198 24 199 C24 220 24 241 24 262 C24 272 24 282 24 293 C24 293 24 293 24 296 C24 329 24 362 24 395 C24 430 24 464 24 498 C24 503 24 508 24 512 C24 513 24 514 24 515 C24 531 24 546 24 561 C24 577 24 592 24 607 C24 616 24 626 24 635 C24 641 24 647 24 653 C24 656 24 660 24 663 C24 667 24 671 24 675 C24 676 24 677 24 678 C24 679 24 680 24 681 C24 682 24 683 24 684 C24 686 24 686 23 687 C20 687 18 687 16 687 C0 690 -12 697 -23 711 C-24 712 -25 714 -26 715 C-32 726 -44 731 -55 737 C-55 737 -56 737 -56 738 C-68 744 -81 747 -94 750 C-103 752 -112 754 -120 758 C-123 759 -126 760 -130 760 C-144 764 -156 771 -164 784 C-175 802 -175 822 -172 842 C-171 842 -171 843 -171 843 C-170 848 -170 853 -170 858 C-170 859 -170 861 -170 862 C-170 868 -171 873 -173 880 C-176 897 -169 916 -164 932 C-160 946 -158 959 -157 973 C-157 974 -157 974 -157 975 C-156 979 -156 983 -156 987 C-155 999 -152 1010 -147 1021 C-145 1027 -145 1033 -145 1039 C-145 1040 -145 1042 -145 1043 C-145 1052 -147 1060 -151 1069 C-151 1070 -152 1072 -152 1074 C-154 1078 -156 1082 -158 1086 C-162 1093 -164 1100 -164 1108 C-165 1111 -165 1111 -166 1112 C-168 1112 -170 1112 -172 1112 C-172 1112 -172 1112 -174 1112 C-176 1112 -178 1112 -180 1112 C-182 1112 -184 1112 -185 1112 C-189 1112 -194 1112 -198 1112 C-202 1112 -205 1112 -209 1112 C-217 1112 -226 1112 -234 1112 C-243 1112 -252 1112 -261 1112 C-268 1112 -276 1112 -283 1112 C-288 1112 -292 1112 -297 1112 C-301 1112 -305 1112 -309 1112 C-311 1112 -312 1112 -314 1112 C-316 1112 -318 1112 -320 1112 C-321 1112 -323 1112 -324 1112 C-325 1112 -326 1112 -327 1112 C-328 1109 -328 1106 -328 1103 C-330 1088 -337 1074 -350 1065 C-363 1055 -377 1050 -394 1052 C-410 1055 -424 1063 -434 1077 C-439 1086 -443 1095 -444 1106 C-444 1110 -444 1110 -446 1112 C-447 1112 -448 1112 -450 1112 C-450 1112 -450 1112 -452 1112 C-453 1112 -454 1112 -455 1112 C-456 1112 -457 1112 -458 1112 C-462 1112 -465 1112 -469 1112 C-471 1112 -473 1112 -476 1112 C-481 1112 -486 1112 -491 1112 C-497 1112 -504 1112 -510 1112 C-515 1112 -520 1112 -525 1112 C-527 1112 -529 1112 -532 1112 C-535 1112 -538 1112 -542 1112 C-542 1112 -542 1112 -545 1112 C-546 1112 -546 1112 -547 1112 C-548 1112 -549 1112 -550 1112 C-552 1112 -552 1112 -553 1111 C-553 1108 -553 1106 -553 1104 C-556 1086 -565 1074 -579 1063 C-580 1061 -582 1059 -584 1057 C-586 1056 -588 1055 -589 1053 C-604 1040 -619 1018 -621 997 C-621 992 -621 986 -621 980 C-621 978 -621 976 -621 974 C-621 969 -621 964 -621 960 C-621 952 -621 944 -621 936 C-621 933 -621 931 -621 928 C-621 916 -622 904 -626 892 C-626 892 -626 891 -626 890 C-628 885 -631 879 -633 874 C-635 868 -637 862 -639 856 C-643 839 -651 825 -667 816 C-676 811 -684 810 -695 809 C-695 808 -695 807 -695 806 C-694 805 -693 805 -692 805 C-675 803 -661 797 -650 784 C-642 773 -639 760 -636 747 C-636 745 -635 742 -634 739 C-629 724 -632 709 -639 696 C-647 681 -662 669 -678 663 C-682 662 -687 661 -692 661 C-695 661 -695 661 -696 660 C-696 657 -696 654 -696 652 C-696 651 -696 650 -696 650 C-696 647 -696 644 -696 642 C-696 640 -696 638 -696 636 C-696 631 -696 625 -696 620 C-696 615 -696 609 -696 604 C-696 595 -696 585 -696 576 C-696 566 -696 555 -696 544 C-696 535 -696 526 -696 517 C-696 512 -696 506 -696 501 C-696 496 -696 490 -696 485 C-696 483 -696 482 -696 480 C-696 477 -696 475 -696 472 C-696 472 -696 472 -696 470 C-696 465 -696 465 -695 464 C-692 463 -690 463 -688 463 C-673 461 -660 454 -650 442 C-643 432 -640 421 -637 409 C-635 399 -632 389 -629 379 C-624 360 -626 342 -626 323 C-626 322 -626 321 -626 320 C-627 306 -628 293 -629 280 C-632 244 -632 208 -633 172 C-633 155 -634 138 -634 121 C-635 118 -635 116 -635 114 C-635 103 -635 92 -636 81 C-636 75 -636 69 -637 63 C-637 59 -637 55 -637 51 C-637 47 -637 44 -637 41 C-637 40 -638 39 -638 38 C-638 31 -637 26 -635 21 C-634 21 -633 21 -633 21 C-630 26 -629 31 -629 37 C-629 38 -629 39 -628 40 C-628 43 -628 45 -628 48 C-628 51 -628 54 -627 57 C-627 59 -627 61 -627 63 C-627 67 -626 72 -626 77 C-624 100 -624 124 -624 148 C-624 154 -624 161 -624 167 C-624 170 -624 173 -624 176 C-624 197 -621 215 -607 232 C-603 235 -600 237 -596 239 C-591 241 -588 243 -585 246 C-583 251 -585 255 -587 261 C-587 262 -587 264 -588 265 C-589 268 -590 272 -591 275 C-593 280 -594 285 -595 290 C-598 298 -600 305 -602 313 C-607 328 -612 343 -614 359 C-615 364 -617 369 -618 374 C-624 394 -629 415 -633 436 C-634 439 -634 443 -635 447 C-639 468 -643 488 -630 507 C-620 521 -608 529 -592 532 C-580 533 -569 531 -557 527 C-530 520 -499 525 -475 539 C-471 541 -468 544 -464 547 C-451 556 -437 561 -421 559 C-406 556 -393 550 -383 538 C-372 522 -371 504 -369 486 C-369 484 -369 482 -368 480 C-368 477 -368 474 -367 472 C-366 462 -365 452 -364 442 C-361 420 -359 397 -372 377 C-380 367 -389 360 -401 356 C-401 355 -401 355 -403 355 C-403 355 -404 355 -405 355 C-405 352 -405 350 -405 347 C-405 347 -405 346 -405 345 C-406 331 -406 331 -404 326 C-400 323 -397 322 -394 322 C-379 316 -369 306 -362 292 C-357 280 -357 267 -357 255 C-357 253 -357 252 -358 250 C-358 248 -358 245 -358 242 C-358 238 -358 235 -358 231 C-358 228 -358 225 -358 222 C-358 220 -358 218 -358 216 C-359 196 -362 178 -378 163 C-389 154 -404 149 -419 150 C-436 152 -449 159 -461 172 C-462 174 -464 176 -466 179 C-466 179 -466 179 -468 181 C-468 181 -469 181 -470 181 C-466 169 -459 160 -453 150 C-446 139 -439 128 -432 117 C-428 110 -424 103 -420 97 C-418 93 -416 90 -415 87 C-410 78 -410 78 -405 76 C-403 76 -400 75 -397 75 C-385 73 -374 65 -366 55 C-360 46 -358 37 -356 26 C-355 22 -354 18 -353 15 C-351 15 -351 15 -349 18 C-348 22 -348 26 -348 30 C-348 31 -348 32 -348 33 C-348 35 -348 38 -348 41 C-348 43 -348 45 -348 47 C-348 52 -348 56 -348 60 C-348 67 -348 74 -348 81 C-348 92 -348 103 -348 114 C-348 134 -348 154 -349 173 C-349 180 -349 187 -349 194 C-349 214 -349 233 -348 253 C-348 254 -348 255 -348 255 C-348 264 -347 274 -346 283 C-345 306 -345 328 -348 351 C-349 361 -350 371 -350 382 C-350 382 -350 382 -351 385 C-351 403 -347 418 -336 433 C-335 433 -334 434 -334 434 C-331 438 -331 443 -331 448 C-331 450 -331 452 -330 453 C-330 456 -330 459 -330 461 C-329 471 -328 481 -326 491 C-325 498 -324 506 -324 514 C-324 517 -324 519 -323 522 C-323 523 -323 525 -323 527 C-323 531 -322 535 -322 540 C-320 556 -320 572 -320 588 C-320 611 -319 632 -302 651 C-284 669 -260 667 -236 666 C-227 666 -217 666 -208 667 C-207 667 -206 668 -206 668 C-180 671 -158 684 -140 702 C-126 715 -107 723 -88 723 C-71 721 -57 715 -45 703 C-31 687 -31 668 -31 648 C-31 646 -31 644 -31 642 C-31 638 -31 634 -31 630 C-31 625 -31 621 -31 616 C-31 585 -32 554 -34 524 C-34 520 -34 515 -35 511 C-35 510 -35 509 -35 508 C-35 502 -36 496 -36 489 C-36 488 -36 488 -36 487 C-36 483 -37 479 -37 476 C-38 455 -41 437 -57 422 C-68 413 -83 408 -98 409 C-109 410 -119 414 -129 420 C-130 417 -131 414 -132 412 C-132 411 -132 410 -133 409 C-136 400 -136 391 -137 381 C-137 367 -139 350 -150 340 C-150 338 -150 338 -151 336 C-151 335 -151 334 -151 333 C-151 332 -151 332 -152 331 C-153 322 -153 322 -155 319 C-156 316 -156 313 -156 309 C-156 308 -156 307 -156 305 C-156 304 -156 303 -157 303 C-155 305 -153 307 -152 309 C-143 321 -133 330 -118 334 C-101 337 -85 335 -71 325 C-58 315 -50 302 -48 286 C-48 282 -47 277 -47 272 C-47 271 -46 270 -46 268 C-46 268 -46 268 -46 265 C-45 262 -45 261 -43 260 C-41 259 -39 258 -38 257 C-24 249 -16 238 -12 223 C-11 222 -11 221 -11 220 C-8 212 -8 202 -8 193 C-8 192 -8 191 -8 190 C-8 187 -8 183 -8 179 C-8 177 -8 174 -8 172 C-7 166 -7 160 -7 154 C-7 149 -7 144 -7 140 C-5 87 -5 87 -5 63 C-5 63 -5 63 -5 61 C-5 54 -5 47 -5 39 C-5 37 -5 35 -5 33 C-5 32 -5 31 -5 30 C-5 25 -4 20 -2 15 C-1 12 -1 9 -0 5 C-0 3 -0 1 0 0 Z " fill="white" transform="translate(696,0)"/></g>
<path d="M0 0 C4 4 5 10 5 16 C5 19 5 21 5 23 C6 24 6 25 6 26 C6 30 6 34 6 38 C6 38 6 38 6 41 C6 49 6 56 6 64 C6 67 6 70 6 73 C6 79 6 84 6 90 C6 95 6 101 6 106 C7 152 7 198 6 244 C6 246 6 249 6 252 C6 293 4 335 2 376 C1 379 1 383 1 386 C0 410 -0 435 -2 459 C-3 477 -4 495 -4 513 C-4 514 -4 514 -4 516 C-4 517 -4 518 -4 518 C-4 524 -4 529 -5 535 C-5 549 -5 563 -6 576 C-6 580 -6 584 -6 588 C-6 600 -6 611 -6 622 C-7 654 -7 686 -10 717 C-10 723 -11 729 -11 734 C-13 767 -13 767 -15 781 C-17 797 -18 813 -18 829 C-18 833 -19 837 -19 842 C-19 843 -19 844 -19 845 C-19 851 -19 857 -20 863 C-20 872 -20 882 -21 892 C-21 895 -21 899 -21 902 C-21 903 -21 903 -21 904 C-21 906 -21 908 -21 910 C-21 918 -21 926 -21 934 C-22 969 -23 1004 -27 1039 C-27 1040 -27 1041 -27 1041 C-28 1058 -30 1075 -32 1092 C-34 1103 -35 1114 -35 1125 C-35 1125 -35 1126 -35 1127 C-35 1131 -35 1136 -36 1141 C-36 1178 -40 1215 -46 1252 C-49 1267 -50 1282 -51 1298 C-52 1319 -54 1341 -60 1362 C-65 1380 -66 1398 -67 1416 C-69 1440 -72 1463 -76 1487 C-76 1487 -76 1488 -76 1489 C-76 1493 -77 1496 -78 1500 C-81 1523 -80 1546 -79 1569 C-79 1571 -79 1573 -79 1575 C-78 1590 -77 1606 -75 1621 C-74 1636 -73 1652 -72 1667 C-72 1670 -71 1672 -71 1675 C-70 1684 -70 1693 -69 1703 C-69 1703 -69 1704 -69 1705 C-68 1727 -67 1749 -67 1772 C-67 1776 -67 1781 -67 1785 C-67 1792 -67 1799 -67 1806 C-67 1814 -67 1822 -67 1831 C-67 1838 -67 1845 -67 1852 C-67 1856 -67 1860 -67 1864 C-67 1886 -68 1908 -69 1930 C-69 1934 -70 1938 -70 1942 C-70 1943 -70 1944 -70 1946 C-70 1948 -70 1951 -71 1954 C-71 1954 -71 1954 -71 1956 C-71 1963 -71 1971 -72 1979 C-72 1992 -73 2005 -75 2018 C-77 2030 -79 2042 -79 2055 C-80 2087 -80 2087 -86 2096 C-87 2096 -88 2097 -89 2098 C-91 2100 -93 2102 -95 2105 C-99 2111 -104 2114 -111 2118 C-114 2119 -116 2121 -119 2123 C-123 2127 -127 2129 -132 2131 C-136 2133 -138 2134 -141 2137 C-148 2142 -156 2145 -163 2149 C-165 2149 -167 2150 -168 2151 C-175 2155 -182 2157 -190 2159 C-197 2161 -202 2164 -208 2169 C-214 2173 -223 2174 -231 2175 C-245 2176 -245 2176 -251 2180 C-258 2184 -264 2186 -272 2188 C-273 2188 -273 2188 -275 2188 C-278 2189 -281 2190 -284 2190 C-286 2191 -289 2191 -292 2192 C-294 2192 -296 2193 -298 2193 C-298 2193 -299 2194 -300 2194 C-301 2194 -302 2194 -302 2194 C-304 2195 -304 2195 -307 2196 C-309 2196 -309 2196 -311 2196 C-312 2196 -313 2196 -313 2196 C-315 2196 -316 2195 -318 2194 C-319 2190 -319 2188 -316 2185 C-307 2175 -300 2171 -287 2169 C-278 2168 -270 2165 -262 2161 C-255 2158 -249 2156 -243 2155 C-231 2152 -222 2149 -211 2142 C-206 2140 -201 2138 -196 2136 C-196 2134 -196 2132 -195 2131 C-203 2128 -211 2129 -219 2131 C-234 2134 -250 2134 -265 2134 C-266 2134 -267 2134 -267 2134 C-269 2134 -270 2133 -272 2133 C-275 2134 -278 2134 -281 2135 C-283 2135 -284 2135 -286 2135 C-294 2135 -302 2135 -310 2140 C-313 2141 -315 2141 -318 2141 C-321 2139 -323 2136 -326 2134 C-336 2126 -351 2123 -363 2118 C-371 2115 -379 2112 -387 2108 C-388 2107 -389 2107 -389 2106 C-398 2102 -406 2097 -413 2090 C-415 2088 -417 2086 -420 2084 C-423 2082 -426 2079 -428 2076 C-431 2073 -434 2070 -438 2068 C-442 2065 -446 2062 -449 2058 C-452 2055 -454 2053 -457 2050 C-460 2048 -462 2046 -464 2043 C-466 2040 -470 2040 -473 2040 C-476 2041 -477 2042 -479 2045 C-480 2047 -480 2047 -480 2050 C-480 2051 -480 2052 -481 2053 C-481 2054 -481 2054 -481 2055 C-482 2061 -483 2066 -484 2072 C-484 2076 -485 2081 -486 2085 C-487 2094 -489 2102 -493 2110 C-499 2128 -502 2148 -503 2167 C-503 2174 -505 2180 -508 2187 C-510 2192 -510 2198 -508 2203 C-507 2205 -505 2206 -502 2207 C-499 2207 -499 2207 -496 2206 C-495 2206 -495 2206 -492 2206 C-489 2206 -486 2205 -483 2204 C-477 2202 -471 2202 -465 2202 C-462 2202 -459 2202 -456 2202 C-455 2202 -454 2202 -454 2202 C-438 2201 -424 2200 -409 2195 C-405 2194 -400 2193 -395 2192 C-390 2191 -386 2190 -381 2188 C-376 2186 -371 2185 -365 2184 C-364 2184 -363 2184 -363 2183 C-353 2182 -345 2181 -337 2187 C-335 2189 -334 2190 -334 2193 C-334 2197 -336 2199 -339 2201 C-342 2203 -346 2205 -350 2207 C-353 2209 -357 2211 -360 2213 C-364 2215 -368 2216 -372 2217 C-373 2217 -373 2217 -374 2217 C-380 2219 -387 2220 -393 2221 C-403 2222 -412 2224 -422 2226 C-430 2229 -439 2230 -448 2231 C-449 2231 -450 2231 -451 2231 C-459 2231 -467 2232 -475 2232 C-477 2232 -479 2232 -481 2232 C-484 2232 -487 2232 -491 2232 C-494 2232 -497 2232 -500 2232 C-501 2232 -502 2232 -503 2232 C-510 2232 -510 2232 -513 2235 C-517 2240 -517 2245 -518 2251 C-518 2259 -519 2267 -520 2276 C-521 2276 -521 2277 -521 2277 C-522 2284 -523 2291 -525 2297 C-525 2298 -525 2298 -525 2301 C-526 2303 -526 2305 -526 2307 C-531 2328 -531 2349 -530 2370 C-530 2374 -530 2378 -530 2382 C-531 2406 -530 2430 -525 2454 C-524 2456 -524 2457 -524 2459 C-523 2464 -522 2469 -520 2474 C-519 2481 -518 2488 -517 2495 C-517 2496 -517 2497 -517 2498 C-516 2513 -516 2528 -517 2543 C-517 2543 -517 2544 -517 2545 C-518 2556 -520 2566 -525 2576 C-530 2586 -530 2598 -530 2609 C-530 2611 -530 2614 -530 2616 C-530 2631 -528 2643 -522 2656 C-520 2663 -519 2670 -518 2677 C-517 2686 -515 2695 -513 2703 C-513 2704 -512 2705 -512 2705 C-511 2709 -509 2713 -507 2717 C-503 2724 -502 2731 -500 2739 C-499 2746 -498 2753 -495 2759 C-490 2768 -489 2778 -488 2788 C-487 2795 -486 2802 -484 2809 C-484 2812 -484 2814 -483 2817 C-483 2819 -483 2820 -483 2822 C-482 2823 -482 2823 -482 2824 C-482 2828 -481 2832 -480 2836 C-476 2856 -477 2876 -476 2897 C-475 2956 -475 2956 -461 2978 C-458 2984 -455 2990 -453 2997 C-452 3003 -449 3008 -447 3013 C-440 3026 -442 3042 -442 3056 C-442 3059 -442 3062 -442 3066 C-442 3076 -442 3086 -443 3096 C-443 3096 -443 3096 -443 3098 C-443 3106 -445 3112 -450 3119 C-455 3125 -458 3133 -458 3142 C-459 3161 -464 3174 -478 3188 C-483 3192 -489 3195 -495 3198 C-498 3199 -501 3201 -504 3203 C-514 3210 -528 3210 -539 3210 C-540 3210 -541 3210 -542 3210 C-545 3210 -548 3210 -552 3211 C-555 3211 -559 3211 -563 3211 C-564 3211 -565 3211 -566 3211 C-573 3211 -579 3212 -585 3212 C-610 3214 -635 3214 -660 3214 C-665 3214 -671 3214 -677 3214 C-686 3214 -696 3214 -705 3214 C-715 3214 -725 3214 -735 3214 C-735 3214 -736 3214 -736 3214 C-737 3214 -737 3214 -738 3214 C-750 3214 -762 3214 -774 3214 C-777 3214 -780 3214 -784 3214 C-789 3214 -794 3214 -800 3214 C-802 3214 -804 3214 -805 3214 C-817 3214 -827 3213 -838 3213 C-842 3212 -845 3212 -849 3212 C-849 3212 -849 3212 -851 3212 C-853 3212 -856 3212 -858 3212 C-860 3212 -861 3212 -863 3212 C-867 3211 -872 3211 -876 3211 C-879 3211 -882 3211 -884 3211 C-908 3210 -931 3209 -954 3209 C-968 3209 -980 3209 -991 3201 C-992 3200 -994 3199 -995 3198 C-996 3198 -996 3197 -997 3197 C-1000 3195 -1004 3193 -1008 3191 C-1013 3188 -1015 3184 -1017 3179 C-1017 3178 -1017 3177 -1017 3177 C-1018 3174 -1019 3171 -1020 3168 C-1023 3159 -1028 3150 -1034 3142 C-1041 3130 -1044 3119 -1046 3105 C-1046 3105 -1046 3104 -1046 3103 C-1048 3091 -1049 3078 -1049 3066 C-1049 3062 -1049 3059 -1049 3056 C-1050 3043 -1049 3030 -1047 3017 C-1044 3000 -1045 2985 -1050 2969 C-1057 2948 -1057 2926 -1057 2905 C-1056 2902 -1057 2900 -1057 2897 C-1057 2881 -1056 2866 -1052 2851 C-1050 2843 -1048 2835 -1047 2827 C-1047 2826 -1047 2826 -1047 2825 C-1046 2820 -1045 2814 -1045 2809 C-1044 2798 -1041 2789 -1037 2779 C-1033 2770 -1031 2760 -1030 2750 C-1028 2741 -1025 2732 -1021 2724 C-1019 2717 -1017 2711 -1016 2705 C-1014 2697 -1012 2691 -1007 2684 C-1002 2674 -1000 2662 -999 2651 C-998 2643 -995 2637 -992 2630 C-987 2620 -985 2610 -983 2600 C-982 2598 -982 2596 -981 2594 C-976 2578 -977 2561 -981 2545 C-983 2536 -983 2527 -983 2519 C-983 2518 -983 2517 -983 2517 C-984 2476 -984 2476 -977 2457 C-973 2446 -971 2436 -969 2425 C-969 2418 -966 2412 -963 2406 C-957 2395 -956 2383 -954 2371 C-953 2362 -951 2353 -948 2344 C-946 2338 -944 2333 -944 2326 C-943 2326 -943 2326 -943 2324 C-942 2312 -942 2301 -942 2290 C-941 2288 -941 2286 -941 2284 C-941 2275 -941 2267 -941 2258 C-941 2256 -941 2254 -941 2251 C-940 2244 -939 2237 -943 2231 C-945 2229 -946 2228 -949 2227 C-950 2228 -951 2228 -952 2228 C-961 2229 -969 2229 -979 2226 C-1000 2219 -1023 2217 -1046 2215 C-1060 2213 -1075 2210 -1090 2207 C-1092 2206 -1095 2206 -1097 2205 C-1106 2203 -1115 2201 -1123 2197 C-1133 2192 -1144 2190 -1155 2188 C-1167 2186 -1179 2183 -1190 2178 C-1192 2178 -1194 2177 -1196 2176 C-1201 2174 -1206 2172 -1211 2169 C-1212 2168 -1212 2168 -1213 2167 C-1219 2162 -1226 2157 -1232 2152 C-1233 2151 -1233 2151 -1234 2150 C-1239 2145 -1241 2139 -1243 2133 C-1243 2132 -1244 2131 -1244 2130 C-1245 2128 -1246 2126 -1246 2123 C-1247 2123 -1247 2122 -1247 2121 C-1253 2103 -1251 2084 -1251 2065 C-1251 2062 -1251 2059 -1251 2055 C-1251 2053 -1251 2052 -1251 2050 C-1251 2044 -1251 2039 -1254 2034 C-1257 2032 -1260 2032 -1263 2033 C-1266 2034 -1268 2035 -1271 2036 C-1275 2038 -1279 2039 -1284 2040 C-1291 2041 -1298 2043 -1305 2046 C-1315 2050 -1325 2052 -1336 2053 C-1347 2055 -1347 2055 -1351 2058 C-1355 2063 -1354 2071 -1353 2077 C-1352 2084 -1350 2090 -1348 2096 C-1343 2109 -1341 2121 -1340 2135 C-1340 2136 -1340 2137 -1340 2138 C-1340 2139 -1340 2140 -1340 2140 C-1339 2143 -1339 2146 -1339 2148 C-1339 2150 -1339 2151 -1339 2153 C-1338 2161 -1337 2169 -1335 2177 C-1334 2181 -1334 2185 -1334 2190 C-1334 2190 -1334 2191 -1333 2192 C-1333 2199 -1333 2206 -1333 2213 C-1333 2215 -1333 2216 -1333 2217 C-1333 2227 -1333 2227 -1333 2232 C-1333 2245 -1333 2258 -1329 2270 C-1328 2275 -1327 2280 -1327 2285 C-1327 2286 -1326 2287 -1326 2287 C-1326 2289 -1326 2291 -1326 2293 C-1325 2298 -1324 2302 -1324 2307 C-1324 2308 -1323 2309 -1323 2310 C-1322 2317 -1321 2324 -1320 2330 C-1317 2350 -1314 2370 -1313 2390 C-1313 2390 -1313 2391 -1312 2392 C-1311 2414 -1310 2435 -1310 2456 C-1309 2504 -1309 2504 -1308 2528 C-1308 2530 -1308 2532 -1308 2534 C-1308 2549 -1306 2565 -1302 2580 C-1299 2592 -1298 2604 -1297 2617 C-1296 2632 -1295 2646 -1290 2660 C-1285 2675 -1282 2689 -1280 2703 C-1278 2715 -1275 2726 -1271 2737 C-1268 2747 -1266 2757 -1265 2767 C-1264 2777 -1261 2786 -1255 2795 C-1252 2799 -1250 2804 -1249 2809 C-1247 2813 -1245 2817 -1243 2820 C-1238 2827 -1237 2833 -1235 2841 C-1235 2843 -1235 2845 -1234 2847 C-1234 2847 -1234 2848 -1234 2849 C-1233 2855 -1231 2861 -1229 2867 C-1227 2874 -1225 2880 -1224 2887 C-1224 2888 -1224 2889 -1223 2889 C-1221 2904 -1221 2920 -1221 2936 C-1221 2936 -1221 2937 -1221 2938 C-1221 2953 -1221 2968 -1222 2982 C-1222 2984 -1222 2987 -1222 2989 C-1222 3005 -1225 3019 -1231 3034 C-1233 3040 -1234 3046 -1236 3052 C-1240 3074 -1240 3074 -1246 3083 C-1250 3088 -1252 3093 -1255 3098 C-1258 3103 -1260 3109 -1263 3114 C-1263 3114 -1264 3115 -1264 3116 C-1265 3118 -1266 3120 -1267 3122 C-1268 3122 -1268 3123 -1268 3123 C-1270 3127 -1272 3130 -1275 3132 C-1277 3135 -1279 3138 -1281 3141 C-1283 3144 -1285 3147 -1288 3149 C-1291 3151 -1293 3153 -1295 3157 C-1302 3168 -1312 3177 -1324 3183 C-1327 3184 -1329 3186 -1331 3188 C-1335 3192 -1340 3193 -1345 3195 C-1348 3196 -1350 3197 -1353 3198 C-1354 3198 -1356 3199 -1357 3199 C-1360 3200 -1362 3201 -1365 3202 C-1378 3207 -1392 3209 -1407 3210 C-1417 3211 -1427 3213 -1437 3215 C-1437 3215 -1438 3215 -1439 3215 C-1440 3215 -1442 3216 -1444 3216 C-1452 3217 -1461 3218 -1470 3218 C-1470 3218 -1470 3218 -1473 3218 C-1475 3218 -1478 3218 -1480 3218 C-1483 3218 -1487 3218 -1490 3218 C-1502 3218 -1514 3217 -1526 3216 C-1528 3215 -1529 3215 -1530 3215 C-1533 3215 -1536 3214 -1539 3214 C-1553 3212 -1567 3210 -1582 3209 C-1592 3208 -1602 3206 -1612 3201 C-1618 3197 -1624 3195 -1631 3194 C-1638 3192 -1644 3189 -1651 3186 C-1656 3183 -1661 3181 -1666 3180 C-1672 3178 -1677 3176 -1682 3171 C-1685 3167 -1690 3165 -1695 3163 C-1704 3159 -1704 3159 -1708 3156 C-1711 3152 -1716 3151 -1721 3149 C-1726 3147 -1730 3144 -1734 3139 C-1737 3137 -1739 3135 -1742 3133 C-1747 3130 -1750 3127 -1753 3123 C-1756 3120 -1758 3118 -1761 3116 C-1763 3115 -1765 3113 -1766 3111 C-1768 3108 -1771 3106 -1775 3104 C-1780 3101 -1783 3098 -1787 3093 C-1789 3091 -1789 3091 -1792 3089 C-1794 3087 -1796 3085 -1798 3082 C-1800 3079 -1802 3077 -1805 3074 C-1808 3071 -1811 3067 -1813 3062 C-1815 3059 -1817 3056 -1820 3054 C-1824 3049 -1826 3044 -1828 3039 C-1830 3035 -1832 3031 -1835 3028 C-1839 3023 -1840 3018 -1842 3012 C-1844 3008 -1846 3004 -1849 3000 C-1854 2993 -1856 2985 -1858 2977 C-1859 2971 -1861 2965 -1863 2960 C-1871 2942 -1870 2923 -1871 2904 C-1871 2901 -1871 2899 -1871 2896 C-1871 2881 -1871 2867 -1871 2852 C-1870 2823 -1870 2794 -1870 2766 C-1870 2760 -1870 2754 -1870 2748 C-1870 2742 -1870 2736 -1870 2730 C-1870 2726 -1870 2723 -1870 2719 C-1870 2675 -1870 2675 -1873 2657 C-1873 2656 -1873 2655 -1873 2654 C-1874 2647 -1876 2640 -1879 2633 C-1883 2627 -1884 2621 -1886 2614 C-1887 2605 -1890 2598 -1895 2591 C-1898 2586 -1899 2581 -1900 2575 C-1902 2568 -1903 2562 -1908 2556 C-1912 2548 -1914 2540 -1916 2531 C-1918 2522 -1920 2514 -1924 2506 C-1930 2495 -1931 2483 -1932 2472 C-1932 2470 -1933 2469 -1933 2468 C-1933 2465 -1933 2463 -1934 2460 C-1934 2457 -1935 2453 -1935 2450 C-1935 2448 -1936 2446 -1936 2444 C-1936 2443 -1936 2442 -1936 2441 C-1938 2429 -1939 2417 -1939 2405 C-1939 2404 -1939 2404 -1939 2403 C-1939 2387 -1936 2371 -1934 2356 C-1930 2331 -1930 2306 -1930 2280 C-1931 2256 -1930 2233 -1922 2210 C-1919 2202 -1917 2195 -1916 2187 C-1914 2178 -1912 2171 -1907 2164 C-1903 2158 -1902 2153 -1901 2147 C-1899 2139 -1897 2133 -1893 2126 C-1889 2121 -1887 2115 -1885 2109 C-1884 2104 -1882 2101 -1879 2097 C-1876 2092 -1873 2087 -1871 2081 C-1869 2076 -1867 2072 -1863 2068 C-1860 2064 -1858 2060 -1855 2056 C-1855 2055 -1855 2055 -1854 2053 C-1851 2048 -1849 2043 -1850 2038 C-1852 2033 -1854 2028 -1858 2025 C-1861 2024 -1865 2023 -1868 2022 C-1874 2021 -1878 2019 -1883 2017 C-1890 2013 -1897 2010 -1905 2008 C-1912 2006 -1917 2004 -1922 2000 C-1927 1997 -1933 1995 -1938 1994 C-1945 1992 -1949 1989 -1955 1985 C-1957 1982 -1960 1981 -1963 1979 C-1967 1978 -1969 1976 -1972 1973 C-1974 1971 -1976 1969 -1978 1968 C-1978 1967 -1978 1967 -1980 1966 C-1981 1964 -1983 1963 -1984 1962 C-1988 1958 -1991 1955 -1995 1951 C-1996 1949 -1998 1948 -2000 1946 C-2004 1943 -2006 1940 -2008 1936 C-2010 1934 -2012 1932 -2014 1931 C-2018 1926 -2020 1920 -2023 1915 C-2024 1912 -2025 1910 -2026 1908 C-2026 1907 -2027 1906 -2027 1905 C-2028 1903 -2029 1901 -2030 1899 C-2036 1890 -2035 1878 -2035 1868 C-2034 1867 -2034 1866 -2034 1865 C-2034 1846 -2033 1827 -2029 1808 C-2025 1793 -2025 1777 -2025 1762 C-2024 1755 -2024 1748 -2023 1741 C-2021 1731 -2021 1720 -2020 1710 C-2019 1693 -2018 1676 -2013 1659 C-2009 1646 -2008 1633 -2006 1620 C-2006 1613 -2005 1607 -2004 1601 C-2004 1600 -2004 1599 -2004 1599 C-2003 1588 -2001 1577 -1998 1567 C-1993 1549 -1991 1530 -1990 1512 C-1988 1500 -1987 1489 -1984 1477 C-1983 1477 -1983 1476 -1983 1475 C-1982 1473 -1982 1471 -1981 1469 C-1978 1460 -1977 1450 -1976 1440 C-1973 1423 -1971 1407 -1965 1390 C-1963 1381 -1962 1372 -1961 1362 C-1959 1345 -1957 1330 -1951 1314 C-1948 1305 -1947 1295 -1945 1286 C-1944 1275 -1942 1266 -1939 1256 C-1938 1254 -1938 1253 -1937 1252 C-1937 1251 -1937 1250 -1936 1249 C-1933 1239 -1932 1230 -1931 1221 C-1929 1208 -1927 1196 -1922 1184 C-1918 1174 -1917 1163 -1915 1153 C-1914 1143 -1912 1135 -1908 1126 C-1907 1125 -1907 1125 -1907 1124 C-1906 1123 -1905 1121 -1905 1120 C-1902 1113 -1901 1106 -1900 1099 C-1898 1090 -1896 1081 -1892 1073 C-1891 1070 -1890 1068 -1890 1065 C-1889 1064 -1889 1063 -1888 1062 C-1885 1054 -1885 1045 -1884 1036 C-1884 1035 -1884 1035 -1884 1034 C-1883 1022 -1883 1009 -1883 997 C-1883 997 -1883 997 -1883 995 C-1883 983 -1883 972 -1884 961 C-1885 948 -1885 936 -1886 923 C-1886 922 -1886 921 -1886 920 C-1886 913 -1886 905 -1886 898 C-1887 870 -1888 843 -1891 816 C-1898 753 -1900 690 -1901 627 C-1901 623 -1902 620 -1902 617 C-1902 616 -1902 615 -1902 615 C-1902 607 -1902 599 -1903 591 C-1904 566 -1905 540 -1905 515 C-1905 513 -1905 512 -1905 510 C-1905 493 -1906 477 -1906 461 C-1906 449 -1906 436 -1906 424 C-1906 423 -1906 422 -1906 421 C-1907 396 -1908 370 -1909 345 C-1909 344 -1909 343 -1910 342 C-1910 341 -1910 340 -1910 339 C-1911 324 -1911 309 -1911 295 C-1911 285 -1911 276 -1912 267 C-1912 266 -1912 265 -1912 264 C-1912 240 -1913 216 -1914 192 C-1914 189 -1914 187 -1914 185 C-1915 176 -1915 166 -1916 157 C-1916 140 -1917 122 -1918 105 C-1918 101 -1918 96 -1918 92 C-1919 76 -1919 59 -1919 42 C-1919 41 -1919 39 -1919 37 C-1920 35 -1920 33 -1920 30 C-1920 30 -1920 30 -1920 28 C-1920 23 -1918 18 -1915 14 C-1912 12 -1910 12 -1907 12 C-1904 12 -1903 13 -1900 16 C-1899 19 -1898 23 -1898 26 C-1898 27 -1898 28 -1898 29 C-1898 29 -1898 30 -1898 31 C-1898 32 -1898 33 -1897 34 C-1897 35 -1897 37 -1897 39 C-1897 43 -1897 47 -1896 51 C-1896 55 -1896 58 -1896 61 C-1894 93 -1892 125 -1889 157 C-1889 158 -1889 159 -1889 161 C-1888 166 -1888 171 -1887 176 C-1886 183 -1886 190 -1885 197 C-1885 198 -1885 198 -1885 199 C-1884 216 -1883 232 -1883 249 C-1883 250 -1883 251 -1883 252 C-1882 279 -1882 306 -1882 333 C-1882 341 -1882 348 -1882 356 C-1882 369 -1882 382 -1882 395 C-1882 396 -1882 396 -1882 398 C-1882 403 -1882 409 -1882 414 C-1882 421 -1882 427 -1882 433 C-1882 434 -1882 435 -1882 436 C-1882 449 -1882 462 -1882 475 C-1882 482 -1882 490 -1882 497 C-1882 550 -1882 550 -1882 573 C-1882 574 -1882 575 -1882 576 C-1881 588 -1881 601 -1880 613 C-1879 628 -1878 643 -1878 658 C-1877 679 -1876 701 -1874 722 C-1870 762 -1868 802 -1866 842 C-1866 843 -1866 844 -1866 845 C-1866 850 -1866 854 -1866 859 C-1865 872 -1865 872 -1865 878 C-1864 884 -1864 890 -1864 895 C-1864 897 -1864 899 -1864 901 C-1864 906 -1864 912 -1864 917 C-1864 921 -1864 924 -1864 927 C-1864 929 -1864 930 -1864 931 C-1864 938 -1863 945 -1860 952 C-1859 952 -1858 952 -1856 952 C-1856 951 -1856 950 -1855 950 C-1855 947 -1854 945 -1853 943 C-1852 941 -1851 939 -1850 937 C-1846 927 -1846 927 -1844 922 C-1840 914 -1839 905 -1838 896 C-1837 888 -1833 881 -1829 874 C-1823 863 -1822 848 -1820 836 C-1820 830 -1818 825 -1815 820 C-1812 812 -1811 804 -1809 796 C-1808 784 -1805 774 -1799 764 C-1794 757 -1795 749 -1794 741 C-1793 732 -1792 724 -1787 717 C-1786 716 -1786 715 -1785 714 C-1784 713 -1784 712 -1783 712 C-1781 708 -1780 705 -1779 701 C-1779 700 -1778 699 -1778 699 C-1778 697 -1778 695 -1777 694 C-1777 691 -1776 689 -1776 687 C-1776 686 -1776 686 -1775 683 C-1774 679 -1772 675 -1768 673 C-1766 672 -1766 672 -1764 673 C-1761 679 -1764 689 -1764 696 C-1764 698 -1765 700 -1765 702 C-1766 711 -1767 720 -1772 728 C-1776 735 -1777 743 -1779 750 C-1780 758 -1782 766 -1786 773 C-1789 780 -1790 786 -1791 793 C-1793 805 -1796 817 -1803 827 C-1808 837 -1809 848 -1811 858 C-1812 866 -1813 871 -1817 877 C-1822 884 -1823 890 -1824 898 C-1825 909 -1827 918 -1833 927 C-1837 932 -1838 937 -1838 944 C-1839 946 -1839 948 -1839 951 C-1839 951 -1839 952 -1839 952 C-1840 958 -1841 964 -1843 970 C-1843 971 -1843 972 -1843 972 C-1844 977 -1845 981 -1847 985 C-1850 995 -1851 1005 -1852 1014 C-1853 1027 -1856 1037 -1862 1047 C-1865 1053 -1866 1059 -1866 1065 C-1868 1078 -1871 1091 -1876 1103 C-1879 1110 -1880 1116 -1881 1123 C-1883 1133 -1885 1142 -1888 1151 C-1892 1166 -1895 1181 -1898 1196 C-1899 1207 -1902 1217 -1905 1227 C-1907 1237 -1909 1247 -1910 1257 C-1912 1273 -1914 1288 -1919 1303 C-1923 1315 -1925 1328 -1927 1340 C-1927 1343 -1928 1345 -1928 1347 C-1928 1348 -1928 1349 -1928 1349 C-1929 1357 -1931 1364 -1933 1371 C-1938 1384 -1940 1397 -1941 1410 C-1943 1427 -1946 1443 -1951 1459 C-1954 1467 -1955 1476 -1956 1485 C-1956 1488 -1957 1492 -1957 1495 C-1957 1496 -1957 1496 -1957 1497 C-1959 1507 -1961 1517 -1964 1528 C-1968 1543 -1970 1558 -1972 1574 C-1973 1586 -1975 1597 -1979 1609 C-1982 1620 -1984 1631 -1985 1642 C-1985 1647 -1986 1651 -1986 1656 C-1986 1657 -1986 1657 -1986 1658 C-1988 1675 -1991 1692 -1995 1708 C-1997 1716 -1999 1723 -1999 1731 C-1999 1732 -1999 1732 -1999 1735 C-2000 1748 -2001 1761 -2001 1774 C-2002 1787 -2002 1800 -2003 1812 C-2003 1813 -2003 1814 -2003 1815 C-2004 1820 -2004 1825 -2006 1829 C-2007 1836 -2008 1843 -2009 1851 C-2009 1851 -2009 1852 -2009 1852 C-2010 1865 -2011 1877 -2007 1889 C-2006 1891 -2005 1893 -2005 1895 C-2001 1907 -1996 1915 -1987 1924 C-1985 1926 -1984 1928 -1982 1930 C-1980 1933 -1978 1934 -1975 1935 C-1971 1938 -1968 1941 -1965 1945 C-1960 1951 -1956 1956 -1950 1960 C-1947 1962 -1945 1963 -1943 1965 C-1936 1971 -1930 1974 -1922 1976 C-1917 1978 -1912 1980 -1908 1983 C-1901 1987 -1894 1988 -1886 1990 C-1879 1992 -1873 1995 -1867 1999 C-1860 2003 -1854 2006 -1845 2006 C-1844 2005 -1843 2005 -1842 2005 C-1841 2000 -1840 1995 -1840 1990 C-1840 1989 -1840 1989 -1840 1987 C-1839 1986 -1839 1984 -1839 1983 C-1839 1979 -1839 1975 -1839 1971 C-1839 1970 -1839 1969 -1839 1968 C-1838 1954 -1837 1940 -1831 1927 C-1829 1922 -1827 1917 -1826 1912 C-1824 1904 -1822 1899 -1817 1893 C-1814 1887 -1812 1881 -1810 1875 C-1808 1867 -1806 1862 -1802 1856 C-1798 1849 -1798 1843 -1797 1836 C-1797 1835 -1797 1835 -1797 1833 C-1797 1824 -1798 1816 -1801 1807 C-1803 1798 -1803 1791 -1800 1782 C-1798 1776 -1799 1771 -1800 1765 C-1801 1761 -1801 1758 -1801 1754 C-1800 1746 -1800 1738 -1800 1729 C-1800 1729 -1800 1728 -1800 1727 C-1800 1715 -1800 1703 -1801 1691 C-1801 1690 -1801 1690 -1801 1689 C-1802 1682 -1802 1676 -1803 1669 C-1804 1662 -1805 1654 -1805 1647 C-1805 1645 -1805 1643 -1805 1641 C-1805 1640 -1805 1639 -1805 1638 C-1805 1636 -1806 1634 -1807 1633 C-1811 1632 -1813 1632 -1816 1634 C-1819 1638 -1820 1641 -1822 1645 C-1823 1648 -1824 1650 -1826 1652 C-1827 1652 -1828 1652 -1828 1652 C-1829 1654 -1830 1656 -1831 1658 C-1834 1664 -1836 1668 -1841 1672 C-1848 1677 -1850 1685 -1852 1693 C-1853 1695 -1854 1696 -1855 1698 C-1856 1698 -1857 1698 -1857 1698 C-1857 1698 -1858 1699 -1858 1699 C-1859 1701 -1860 1703 -1861 1704 C-1862 1708 -1863 1711 -1863 1715 C-1863 1716 -1864 1716 -1864 1717 C-1864 1721 -1864 1725 -1864 1729 C-1862 1731 -1860 1733 -1858 1734 C-1854 1738 -1852 1742 -1852 1747 C-1852 1748 -1852 1750 -1852 1752 C-1856 1752 -1858 1752 -1861 1750 C-1864 1747 -1865 1743 -1866 1739 C-1867 1738 -1867 1737 -1867 1737 C-1870 1736 -1870 1736 -1873 1737 C-1875 1739 -1877 1741 -1880 1743 C-1882 1746 -1884 1749 -1888 1751 C-1892 1753 -1894 1757 -1896 1760 C-1899 1764 -1902 1767 -1906 1770 C-1909 1772 -1911 1776 -1913 1779 C-1916 1782 -1918 1784 -1921 1787 C-1923 1789 -1925 1791 -1926 1793 C-1928 1796 -1930 1798 -1933 1800 C-1938 1803 -1940 1807 -1942 1812 C-1944 1815 -1946 1816 -1948 1818 C-1952 1821 -1954 1825 -1957 1830 C-1958 1833 -1960 1836 -1963 1838 C-1967 1844 -1970 1850 -1972 1858 C-1972 1858 -1973 1859 -1973 1859 C-1974 1865 -1974 1870 -1974 1876 C-1974 1877 -1974 1878 -1974 1879 C-1974 1903 -1974 1903 -1966 1911 C-1965 1912 -1963 1913 -1962 1914 C-1959 1917 -1958 1919 -1958 1923 C-1958 1927 -1959 1929 -1961 1932 C-1964 1933 -1965 1934 -1968 1933 C-1971 1932 -1972 1931 -1973 1929 C-1974 1927 -1974 1925 -1975 1923 C-1976 1919 -1977 1916 -1981 1913 C-1985 1910 -1985 1905 -1987 1899 C-1988 1893 -1990 1888 -1993 1882 C-1996 1877 -1998 1872 -1997 1866 C-1996 1864 -1995 1861 -1994 1858 C-1993 1856 -1993 1855 -1992 1853 C-1992 1852 -1992 1852 -1991 1850 C-1990 1848 -1990 1846 -1989 1844 C-1987 1837 -1984 1832 -1980 1826 C-1978 1823 -1977 1820 -1976 1817 C-1974 1813 -1971 1810 -1967 1807 C-1965 1805 -1963 1803 -1962 1800 C-1959 1795 -1956 1792 -1951 1789 C-1949 1787 -1948 1785 -1946 1782 C-1944 1779 -1942 1777 -1939 1775 C-1935 1771 -1932 1767 -1929 1762 C-1927 1760 -1926 1759 -1924 1758 C-1920 1754 -1917 1750 -1913 1745 C-1911 1742 -1908 1739 -1905 1736 C-1903 1733 -1901 1730 -1899 1726 C-1897 1722 -1895 1718 -1892 1714 C-1888 1710 -1886 1705 -1885 1700 C-1883 1694 -1880 1690 -1877 1685 C-1874 1682 -1872 1678 -1870 1673 C-1868 1668 -1866 1665 -1861 1661 C-1859 1658 -1857 1655 -1856 1652 C-1853 1647 -1850 1643 -1846 1639 C-1844 1636 -1842 1632 -1840 1629 C-1838 1624 -1835 1621 -1830 1618 C-1828 1615 -1826 1613 -1825 1610 C-1822 1605 -1818 1601 -1813 1598 C-1810 1596 -1808 1594 -1806 1592 C-1803 1588 -1798 1585 -1794 1582 C-1791 1580 -1788 1578 -1786 1575 C-1782 1571 -1778 1569 -1773 1567 C-1770 1565 -1767 1563 -1764 1560 C-1759 1556 -1753 1554 -1747 1552 C-1742 1550 -1738 1548 -1733 1545 C-1727 1541 -1721 1540 -1714 1538 C-1709 1536 -1704 1535 -1698 1532 C-1670 1518 -1633 1519 -1602 1519 C-1601 1519 -1601 1519 -1599 1519 C-1579 1519 -1558 1520 -1538 1523 C-1534 1524 -1531 1524 -1527 1524 C-1526 1524 -1524 1525 -1523 1525 C-1521 1525 -1519 1525 -1517 1525 C-1509 1526 -1502 1529 -1495 1533 C-1490 1536 -1485 1537 -1479 1538 C-1470 1541 -1464 1543 -1456 1549 C-1453 1551 -1449 1552 -1445 1554 C-1439 1556 -1434 1559 -1429 1563 C-1426 1566 -1422 1568 -1419 1570 C-1413 1572 -1409 1575 -1404 1580 C-1402 1582 -1400 1583 -1397 1585 C-1392 1587 -1390 1590 -1386 1594 C-1384 1597 -1382 1598 -1380 1600 C-1376 1603 -1373 1606 -1369 1611 C-1367 1613 -1365 1616 -1363 1618 C-1359 1621 -1357 1625 -1354 1629 C-1352 1632 -1350 1635 -1348 1637 C-1344 1641 -1342 1645 -1339 1649 C-1337 1653 -1335 1656 -1333 1659 C-1329 1663 -1327 1668 -1324 1673 C-1322 1677 -1320 1680 -1317 1683 C-1313 1687 -1312 1692 -1310 1698 C-1309 1700 -1309 1702 -1308 1705 C-1308 1706 -1307 1706 -1307 1707 C-1306 1711 -1304 1715 -1302 1719 C-1299 1725 -1297 1732 -1296 1739 C-1294 1746 -1292 1751 -1287 1756 C-1284 1759 -1282 1762 -1280 1766 C-1277 1771 -1273 1775 -1269 1778 C-1266 1781 -1263 1784 -1261 1787 C-1258 1791 -1255 1793 -1252 1796 C-1250 1798 -1248 1801 -1246 1804 C-1244 1806 -1242 1807 -1240 1809 C-1237 1811 -1235 1814 -1233 1817 C-1231 1820 -1229 1822 -1226 1825 C-1223 1827 -1220 1829 -1218 1833 C-1216 1836 -1213 1839 -1210 1841 C-1205 1846 -1205 1846 -1203 1849 C-1201 1851 -1200 1853 -1197 1855 C-1193 1858 -1191 1862 -1188 1867 C-1186 1869 -1185 1872 -1183 1874 C-1176 1883 -1176 1895 -1177 1907 C-1180 1930 -1180 1930 -1188 1936 C-1189 1936 -1190 1937 -1191 1938 C-1194 1940 -1195 1943 -1197 1946 C-1200 1953 -1204 1956 -1210 1959 C-1213 1961 -1214 1962 -1216 1964 C-1220 1968 -1227 1968 -1232 1969 C-1234 1968 -1236 1968 -1237 1968 C-1243 1968 -1246 1971 -1250 1975 C-1253 1977 -1255 1978 -1259 1978 C-1262 1977 -1263 1976 -1265 1973 C-1267 1969 -1266 1966 -1265 1962 C-1264 1960 -1264 1960 -1262 1959 C-1257 1958 -1255 1959 -1250 1961 C-1245 1964 -1242 1964 -1237 1963 C-1234 1962 -1234 1962 -1233 1960 C-1233 1959 -1233 1958 -1232 1958 C-1228 1953 -1224 1950 -1219 1947 C-1214 1944 -1211 1940 -1207 1936 C-1205 1933 -1202 1931 -1200 1930 C-1198 1929 -1198 1929 -1197 1927 C-1197 1924 -1197 1922 -1197 1920 C-1197 1919 -1197 1919 -1197 1918 C-1197 1917 -1197 1915 -1197 1914 C-1197 1912 -1197 1909 -1197 1907 C-1197 1899 -1197 1890 -1202 1883 C-1204 1881 -1205 1880 -1207 1878 C-1210 1876 -1211 1874 -1213 1870 C-1216 1864 -1221 1859 -1227 1855 C-1228 1854 -1228 1854 -1230 1851 C-1232 1849 -1234 1848 -1237 1847 C-1242 1845 -1244 1843 -1246 1838 C-1247 1835 -1250 1833 -1252 1831 C-1255 1828 -1258 1825 -1260 1821 C-1263 1818 -1266 1815 -1269 1812 C-1271 1811 -1273 1809 -1274 1807 C-1276 1804 -1278 1802 -1281 1800 C-1285 1797 -1287 1794 -1290 1790 C-1291 1787 -1293 1786 -1296 1784 C-1300 1780 -1302 1776 -1305 1771 C-1306 1769 -1308 1767 -1310 1765 C-1315 1760 -1316 1755 -1318 1749 C-1318 1748 -1319 1747 -1319 1746 C-1319 1745 -1320 1744 -1320 1743 C-1321 1740 -1323 1737 -1324 1734 C-1328 1726 -1329 1718 -1330 1710 C-1331 1709 -1331 1708 -1331 1707 C-1331 1706 -1331 1706 -1331 1704 C-1332 1701 -1333 1700 -1335 1698 C-1338 1697 -1340 1697 -1343 1699 C-1347 1704 -1346 1710 -1346 1716 C-1346 1727 -1348 1736 -1351 1747 C-1356 1761 -1359 1775 -1362 1790 C-1363 1794 -1364 1797 -1365 1801 C-1367 1810 -1367 1820 -1365 1829 C-1364 1839 -1366 1845 -1370 1854 C-1377 1869 -1373 1888 -1371 1904 C-1371 1904 -1371 1904 -1371 1906 C-1370 1918 -1368 1928 -1364 1939 C-1361 1947 -1359 1954 -1358 1963 C-1358 1964 -1358 1965 -1358 1965 C-1357 1978 -1357 1991 -1357 2004 C-1357 2007 -1357 2011 -1357 2014 C-1357 2015 -1357 2016 -1357 2018 C-1357 2027 -1357 2027 -1353 2031 C-1351 2032 -1349 2033 -1346 2032 C-1342 2032 -1338 2030 -1334 2029 C-1323 2024 -1311 2021 -1299 2020 C-1287 2019 -1279 2016 -1270 2009 C-1267 2007 -1263 2006 -1259 2005 C-1253 2002 -1248 2000 -1243 1996 C-1239 1993 -1234 1992 -1230 1991 C-1221 1988 -1215 1986 -1209 1980 C-1206 1978 -1205 1977 -1202 1976 C-1196 1973 -1192 1967 -1188 1962 C-1186 1961 -1186 1961 -1184 1959 C-1182 1956 -1180 1953 -1179 1950 C-1177 1946 -1175 1942 -1172 1938 C-1167 1933 -1165 1926 -1163 1919 C-1161 1915 -1159 1910 -1157 1906 C-1154 1899 -1154 1893 -1154 1885 C-1154 1884 -1154 1883 -1154 1882 C-1153 1879 -1153 1876 -1153 1872 C-1153 1870 -1153 1868 -1153 1865 C-1153 1860 -1153 1854 -1152 1848 C-1152 1837 -1152 1825 -1151 1814 C-1151 1813 -1151 1812 -1151 1812 C-1151 1797 -1150 1781 -1149 1766 C-1149 1765 -1149 1765 -1149 1764 C-1148 1751 -1147 1739 -1145 1726 C-1140 1698 -1138 1671 -1136 1643 C-1136 1641 -1136 1639 -1136 1637 C-1136 1636 -1136 1635 -1136 1634 C-1136 1633 -1136 1632 -1136 1632 C-1135 1628 -1135 1624 -1135 1620 C-1134 1608 -1133 1596 -1132 1584 C-1132 1583 -1131 1582 -1131 1581 C-1130 1574 -1129 1566 -1128 1559 C-1125 1547 -1124 1534 -1123 1521 C-1123 1519 -1123 1517 -1123 1514 C-1123 1511 -1122 1508 -1122 1505 C-1119 1459 -1119 1459 -1117 1436 C-1117 1435 -1117 1435 -1117 1434 C-1116 1425 -1115 1417 -1114 1408 C-1114 1408 -1114 1408 -1113 1406 C-1113 1400 -1111 1395 -1110 1390 C-1106 1374 -1106 1357 -1105 1340 C-1104 1305 -1104 1305 -1101 1292 C-1097 1275 -1095 1257 -1094 1239 C-1093 1238 -1093 1238 -1093 1237 C-1092 1217 -1090 1196 -1089 1176 C-1089 1161 -1088 1146 -1086 1131 C-1086 1130 -1086 1129 -1086 1128 C-1085 1120 -1084 1112 -1083 1103 C-1080 1073 -1078 1042 -1077 1012 C-1076 1007 -1076 1003 -1076 999 C-1072 935 -1074 871 -1075 808 C-1075 806 -1075 804 -1075 802 C-1075 792 -1075 781 -1076 770 C-1077 741 -1078 713 -1078 684 C-1078 682 -1078 680 -1078 679 C-1079 613 -1079 546 -1079 480 C-1079 468 -1079 456 -1079 443 C-1079 442 -1079 441 -1079 441 C-1079 440 -1079 439 -1079 438 C-1079 423 -1079 407 -1079 392 C-1079 387 -1079 381 -1079 376 C-1079 369 -1079 363 -1079 357 C-1079 353 -1079 350 -1079 347 C-1079 331 -1079 315 -1078 299 C-1078 293 -1078 288 -1078 282 C-1078 281 -1078 279 -1078 278 C-1078 274 -1078 269 -1078 265 C-1078 261 -1078 257 -1077 253 C-1077 251 -1077 250 -1077 248 C-1077 242 -1077 237 -1077 232 C-1076 219 -1076 207 -1076 195 C-1076 191 -1076 188 -1076 185 C-1076 177 -1076 170 -1076 162 C-1075 99 -1075 99 -1075 69 C-1075 68 -1075 67 -1075 66 C-1074 10 -1074 10 -1066 2 C-1063 0 -1061 0 -1057 1 C-1055 2 -1054 4 -1052 7 C-1052 9 -1052 11 -1052 13 C-1052 14 -1052 14 -1052 15 C-1052 17 -1052 20 -1052 22 C-1052 23 -1052 23 -1052 24 C-1051 38 -1051 53 -1051 67 C-1052 75 -1052 82 -1052 90 C-1052 91 -1052 91 -1052 92 C-1052 108 -1052 123 -1052 139 C-1052 139 -1052 140 -1052 141 C-1053 148 -1053 155 -1053 162 C-1053 174 -1053 186 -1053 197 C-1053 198 -1053 198 -1053 199 C-1053 221 -1053 242 -1054 263 C-1054 266 -1054 268 -1054 270 C-1054 271 -1054 273 -1054 274 C-1054 275 -1054 276 -1054 277 C-1054 279 -1054 280 -1054 282 C-1054 283 -1054 284 -1054 285 C-1054 292 -1054 299 -1055 307 C-1055 328 -1055 349 -1055 370 C-1055 374 -1055 378 -1055 383 C-1055 396 -1055 410 -1055 423 C-1055 427 -1055 432 -1055 436 C-1055 507 -1055 578 -1053 668 C-1053 675 -1053 682 -1053 689 C-1052 725 -1050 762 -1047 798 C-1044 828 -1043 859 -1043 890 C-1043 892 -1043 894 -1043 895 C-1043 920 -1047 944 -1050 968 C-1051 970 -1051 973 -1051 975 C-1051 976 -1051 977 -1052 977 C-1053 988 -1054 999 -1055 1009 C-1055 1010 -1055 1010 -1055 1012 C-1057 1030 -1057 1048 -1058 1067 C-1059 1105 -1060 1142 -1066 1180 C-1066 1180 -1066 1181 -1066 1182 C-1067 1185 -1067 1188 -1068 1192 C-1071 1206 -1071 1221 -1071 1236 C-1071 1243 -1071 1251 -1072 1258 C-1072 1259 -1072 1260 -1072 1261 C-1073 1295 -1075 1328 -1082 1362 C-1085 1380 -1086 1398 -1087 1417 C-1089 1453 -1089 1453 -1092 1469 C-1099 1503 -1100 1537 -1102 1572 C-1102 1591 -1104 1610 -1107 1630 C-1107 1633 -1108 1637 -1108 1640 C-1108 1641 -1108 1642 -1108 1644 C-1109 1645 -1109 1647 -1109 1649 C-1110 1653 -1110 1657 -1111 1661 C-1113 1673 -1114 1685 -1114 1696 C-1115 1702 -1115 1708 -1115 1714 C-1115 1715 -1115 1715 -1115 1716 C-1117 1740 -1120 1764 -1125 1788 C-1130 1814 -1130 1842 -1131 1869 C-1131 1879 -1131 1890 -1132 1900 C-1132 1901 -1132 1902 -1132 1902 C-1132 1912 -1136 1919 -1141 1928 C-1143 1931 -1144 1934 -1146 1938 C-1148 1944 -1150 1948 -1155 1952 C-1157 1955 -1159 1958 -1160 1961 C-1164 1968 -1169 1973 -1174 1978 C-1176 1980 -1177 1982 -1179 1983 C-1185 1989 -1190 1993 -1197 1996 C-1200 1998 -1203 2000 -1205 2003 C-1209 2006 -1213 2009 -1218 2012 C-1220 2013 -1221 2013 -1222 2016 C-1223 2020 -1223 2024 -1224 2028 C-1224 2028 -1224 2029 -1224 2030 C-1224 2032 -1224 2035 -1224 2037 C-1224 2037 -1224 2037 -1224 2040 C-1224 2046 -1224 2053 -1224 2060 C-1224 2061 -1224 2062 -1224 2063 C-1224 2070 -1224 2077 -1224 2085 C-1224 2087 -1225 2089 -1225 2092 C-1225 2095 -1225 2099 -1225 2102 C-1225 2103 -1225 2104 -1225 2105 C-1225 2112 -1223 2118 -1220 2125 C-1220 2125 -1220 2126 -1219 2127 C-1217 2132 -1213 2134 -1209 2137 C-1206 2140 -1204 2143 -1202 2147 C-1198 2151 -1192 2152 -1186 2153 C-1186 2153 -1186 2153 -1185 2154 C-1178 2155 -1172 2155 -1166 2155 C-1159 2155 -1154 2157 -1148 2162 C-1144 2165 -1139 2165 -1134 2166 C-1126 2167 -1119 2169 -1111 2173 C-1107 2174 -1103 2176 -1099 2178 C-1098 2178 -1098 2178 -1096 2179 C-1083 2184 -1069 2185 -1056 2187 C-1045 2188 -1034 2189 -1024 2195 C-1020 2196 -1016 2197 -1012 2197 C-1011 2197 -1010 2197 -1009 2198 C-1008 2198 -1006 2198 -1004 2198 C-1002 2199 -999 2199 -997 2199 C-987 2201 -977 2201 -966 2201 C-966 2201 -965 2201 -964 2201 C-962 2201 -960 2201 -958 2201 C-957 2201 -956 2201 -956 2201 C-951 2201 -949 2200 -945 2198 C-943 2195 -943 2192 -943 2189 C-943 2188 -943 2188 -943 2186 C-943 2185 -943 2184 -943 2183 C-943 2177 -943 2170 -943 2163 C-942 2152 -942 2141 -942 2129 C-942 2127 -942 2124 -942 2121 C-942 2114 -942 2108 -942 2102 C-942 2094 -942 2087 -942 2080 C-942 2077 -942 2074 -942 2071 C-942 2069 -942 2067 -942 2066 C-942 2065 -942 2065 -942 2063 C-942 2059 -942 2054 -941 2050 C-941 2047 -942 2044 -942 2042 C-945 2041 -947 2041 -950 2043 C-957 2048 -962 2055 -966 2063 C-969 2067 -971 2070 -975 2073 C-977 2075 -978 2076 -980 2078 C-982 2081 -984 2083 -987 2085 C-992 2088 -995 2092 -998 2096 C-1003 2102 -1010 2104 -1016 2107 C-1017 2107 -1017 2107 -1019 2108 C-1027 2112 -1034 2114 -1044 2115 C-1046 2115 -1048 2115 -1050 2115 C-1051 2115 -1052 2115 -1053 2115 C-1057 2116 -1061 2117 -1065 2118 C-1078 2121 -1092 2123 -1106 2123 C-1111 2123 -1115 2124 -1119 2125 C-1123 2126 -1126 2126 -1130 2126 C-1137 2126 -1144 2128 -1151 2130 C-1157 2131 -1163 2132 -1169 2133 C-1170 2133 -1171 2134 -1171 2134 C-1179 2135 -1185 2135 -1192 2133 C-1193 2132 -1194 2132 -1195 2132 C-1199 2130 -1201 2128 -1203 2125 C-1204 2120 -1204 2118 -1202 2115 C-1196 2110 -1188 2110 -1181 2109 C-1178 2109 -1175 2109 -1171 2108 C-1171 2108 -1170 2108 -1170 2108 C-1148 2106 -1148 2106 -1139 2103 C-1132 2101 -1125 2100 -1118 2099 C-1117 2099 -1116 2099 -1115 2099 C-1102 2097 -1090 2097 -1078 2097 C-1036 2095 -1036 2095 -1021 2083 C-1019 2081 -1017 2080 -1014 2079 C-1005 2075 -999 2067 -993 2060 C-993 2059 -992 2058 -992 2058 C-989 2055 -987 2052 -985 2048 C-982 2044 -980 2041 -976 2037 C-974 2035 -972 2033 -971 2030 C-967 2024 -963 2020 -957 2016 C-956 2015 -955 2014 -955 2013 C-950 2008 -945 2005 -939 2001 C-936 1999 -933 1997 -930 1994 C-927 1991 -923 1989 -918 1987 C-914 1985 -911 1983 -908 1981 C-902 1976 -896 1974 -889 1972 C-884 1970 -879 1968 -873 1965 C-866 1961 -858 1960 -850 1958 C-843 1957 -838 1955 -832 1953 C-826 1950 -820 1948 -814 1947 C-813 1947 -812 1947 -812 1947 C-803 1945 -795 1944 -786 1944 C-786 1944 -785 1944 -784 1944 C-730 1940 -675 1941 -621 1947 C-620 1947 -620 1947 -619 1947 C-611 1948 -605 1950 -598 1953 C-589 1957 -580 1958 -570 1960 C-561 1961 -554 1963 -546 1968 C-541 1971 -535 1973 -529 1974 C-523 1976 -517 1979 -512 1983 C-508 1986 -503 1988 -499 1989 C-493 1991 -489 1995 -485 1999 C-482 2002 -479 2004 -476 2005 C-471 2008 -467 2012 -462 2016 C-460 2017 -458 2019 -456 2021 C-443 2031 -432 2043 -420 2055 C-415 2060 -410 2065 -405 2069 C-403 2071 -401 2073 -399 2075 C-395 2079 -391 2080 -385 2082 C-381 2083 -379 2085 -376 2088 C-370 2092 -364 2094 -357 2095 C-350 2096 -345 2098 -340 2102 C-333 2107 -327 2109 -318 2110 C-317 2110 -316 2110 -314 2110 C-297 2113 -279 2113 -261 2113 C-258 2113 -256 2113 -253 2113 C-251 2113 -249 2113 -247 2113 C-246 2113 -245 2113 -244 2113 C-239 2113 -235 2112 -230 2112 C-225 2111 -221 2111 -217 2111 C-216 2111 -215 2111 -214 2111 C-209 2111 -204 2111 -199 2111 C-182 2112 -168 2108 -152 2103 C-148 2101 -144 2100 -140 2099 C-140 2099 -140 2099 -139 2098 C-135 2097 -131 2096 -127 2095 C-110 2091 -110 2091 -105 2085 C-103 2078 -102 2072 -102 2065 C-102 2055 -102 2046 -102 2036 C-102 2036 -102 2035 -102 2034 C-101 2031 -101 2027 -101 2024 C-101 2017 -100 2009 -100 2002 C-100 2001 -100 2001 -100 1999 C-99 1989 -99 1978 -99 1968 C-99 1968 -99 1968 -99 1966 C-98 1960 -98 1953 -98 1947 C-98 1945 -98 1943 -98 1940 C-98 1939 -98 1938 -98 1937 C-97 1931 -97 1924 -97 1918 C-95 1892 -95 1865 -95 1839 C-95 1834 -95 1830 -95 1825 C-95 1802 -95 1778 -96 1755 C-96 1754 -96 1754 -96 1752 C-96 1737 -97 1722 -97 1707 C-97 1706 -97 1705 -97 1704 C-97 1703 -97 1702 -97 1701 C-98 1687 -98 1673 -99 1660 C-99 1638 -100 1616 -101 1594 C-101 1593 -101 1592 -101 1591 C-101 1574 -102 1556 -104 1539 C-105 1522 -106 1505 -106 1489 C-107 1470 -108 1451 -111 1432 C-112 1421 -113 1410 -113 1399 C-113 1397 -113 1395 -113 1393 C-114 1380 -114 1367 -115 1354 C-115 1348 -115 1342 -115 1336 C-115 1335 -115 1334 -115 1333 C-116 1300 -117 1267 -122 1234 C-125 1215 -127 1195 -128 1176 C-128 1175 -128 1174 -128 1174 C-128 1162 -128 1150 -129 1138 C-129 1114 -129 1090 -130 1066 C-130 1062 -130 1059 -131 1055 C-131 1035 -133 1015 -136 995 C-138 985 -139 974 -140 964 C-140 963 -140 962 -141 960 C-141 949 -142 938 -142 927 C-142 925 -142 924 -142 922 C-142 914 -142 906 -142 898 C-142 895 -142 893 -142 890 C-142 878 -143 866 -143 853 C-143 850 -143 847 -143 845 C-143 824 -143 804 -143 784 C-143 784 -143 784 -143 782 C-143 730 -143 730 -137 722 C-136 722 -136 721 -135 721 C-134 721 -133 721 -132 722 C-131 723 -131 723 -131 726 C-130 727 -130 727 -130 728 C-128 734 -128 739 -128 745 C-128 745 -128 745 -128 748 C-128 750 -128 753 -128 756 C-128 757 -128 757 -128 759 C-127 776 -127 792 -127 809 C-127 810 -127 811 -127 812 C-127 822 -127 832 -127 842 C-126 876 -126 876 -126 893 C-126 895 -126 896 -126 897 C-125 905 -125 913 -124 921 C-123 933 -123 945 -123 957 C-123 959 -123 960 -123 962 C-122 974 -122 974 -122 980 C-122 993 -121 1005 -119 1017 C-116 1033 -115 1048 -114 1064 C-113 1093 -111 1122 -109 1151 C-109 1152 -109 1153 -109 1153 C-108 1169 -107 1184 -104 1199 C-102 1213 -101 1227 -101 1241 C-100 1245 -100 1249 -100 1253 C-99 1266 -98 1279 -98 1292 C-98 1293 -98 1293 -98 1294 C-98 1301 -98 1308 -98 1315 C-98 1331 -97 1347 -96 1363 C-96 1364 -96 1365 -96 1365 C-95 1372 -94 1378 -92 1384 C-92 1384 -91 1384 -90 1384 C-82 1364 -81 1342 -78 1322 C-77 1313 -76 1304 -75 1296 C-72 1283 -72 1271 -71 1259 C-70 1236 -69 1214 -65 1191 C-60 1165 -58 1138 -56 1111 C-56 1108 -56 1104 -56 1100 C-55 1094 -55 1088 -55 1083 C-55 1080 -54 1078 -54 1076 C-54 1074 -54 1073 -54 1071 C-54 1067 -54 1062 -53 1057 C-53 1056 -53 1054 -53 1053 C-52 1040 -51 1027 -49 1015 C-49 1012 -49 1009 -48 1007 C-48 1006 -48 1006 -48 1004 C-46 989 -45 974 -44 959 C-44 956 -43 953 -43 949 C-42 925 -41 900 -41 875 C-41 871 -41 867 -41 863 C-40 852 -40 840 -40 829 C-40 797 -39 765 -38 733 C-38 731 -38 729 -38 727 C-38 712 -37 697 -35 682 C-34 670 -33 658 -33 645 C-32 625 -31 604 -30 583 C-30 579 -30 576 -30 572 C-30 568 -29 565 -29 561 C-29 560 -29 558 -29 556 C-29 554 -29 551 -29 549 C-29 548 -29 548 -29 547 C-28 543 -28 538 -28 534 C-27 524 -27 513 -27 503 C-27 500 -27 497 -27 494 C-27 489 -26 483 -26 478 C-26 464 -26 450 -26 437 C-26 436 -26 435 -26 434 C-25 418 -25 401 -25 384 C-25 383 -25 383 -25 382 C-25 377 -24 372 -24 367 C-24 365 -24 364 -24 363 C-24 348 -23 333 -23 317 C-20 267 -20 217 -20 167 C-20 148 -19 129 -19 110 C-19 109 -19 108 -19 107 C-19 61 -19 61 -19 38 C-19 36 -19 34 -19 32 C-19 29 -19 26 -19 23 C-19 22 -19 21 -19 20 C-18 14 -18 7 -14 2 C-13 2 -13 1 -13 1 C-9 -1 -4 -1 0 0 Z M-1634 1543 C-1635 1544 -1635 1544 -1636 1544 C-1652 1545 -1665 1548 -1680 1554 C-1688 1558 -1695 1560 -1703 1562 C-1710 1563 -1715 1565 -1721 1568 C-1727 1570 -1732 1572 -1738 1574 C-1745 1576 -1751 1579 -1757 1583 C-1760 1585 -1764 1587 -1768 1589 C-1773 1591 -1776 1594 -1778 1600 C-1780 1606 -1780 1613 -1779 1619 C-1778 1622 -1778 1625 -1778 1629 C-1778 1629 -1778 1630 -1778 1631 C-1778 1632 -1778 1634 -1778 1635 C-1778 1638 -1778 1640 -1778 1642 C-1777 1649 -1777 1656 -1777 1663 C-1776 1696 -1776 1696 -1775 1707 C-1775 1708 -1775 1708 -1775 1709 C-1774 1715 -1772 1722 -1768 1727 C-1765 1726 -1765 1726 -1762 1726 C-1757 1719 -1756 1708 -1755 1700 C-1755 1700 -1754 1700 -1753 1700 C-1754 1726 -1754 1726 -1757 1736 C-1758 1740 -1759 1744 -1759 1748 C-1759 1749 -1759 1751 -1759 1752 C-1759 1753 -1759 1753 -1759 1755 C-1761 1785 -1764 1815 -1774 1844 C-1776 1849 -1777 1854 -1778 1859 C-1780 1863 -1782 1867 -1785 1871 C-1788 1876 -1790 1881 -1791 1886 C-1793 1894 -1796 1900 -1800 1906 C-1806 1915 -1807 1926 -1807 1936 C-1807 1938 -1807 1940 -1808 1942 C-1808 1949 -1808 1955 -1808 1962 C-1808 1977 -1811 1992 -1818 2006 C-1819 2008 -1819 2010 -1819 2013 C-1819 2013 -1818 2014 -1817 2015 C-1813 2014 -1810 2012 -1806 2009 C-1804 2007 -1802 2006 -1799 2005 C-1795 2002 -1791 1999 -1789 1995 C-1789 1994 -1789 1993 -1789 1993 C-1789 1992 -1789 1992 -1787 1992 C-1782 1989 -1776 1987 -1772 1982 C-1768 1978 -1763 1976 -1758 1974 C-1754 1973 -1751 1971 -1749 1968 C-1744 1962 -1737 1961 -1731 1959 C-1725 1957 -1720 1955 -1715 1951 C-1707 1947 -1699 1946 -1691 1946 C-1688 1945 -1686 1945 -1684 1945 C-1681 1945 -1677 1945 -1674 1944 C-1662 1944 -1650 1943 -1638 1939 C-1634 1938 -1631 1938 -1627 1938 C-1626 1938 -1625 1938 -1624 1938 C-1617 1938 -1610 1940 -1603 1942 C-1594 1945 -1585 1946 -1576 1946 C-1567 1947 -1558 1950 -1550 1955 C-1545 1957 -1540 1959 -1535 1960 C-1529 1962 -1524 1965 -1519 1969 C-1516 1971 -1512 1973 -1508 1975 C-1503 1977 -1500 1979 -1496 1983 C-1494 1985 -1490 1987 -1487 1989 C-1482 1992 -1478 1995 -1475 2000 C-1473 2002 -1471 2003 -1469 2005 C-1464 2007 -1462 2010 -1459 2014 C-1457 2017 -1455 2019 -1453 2021 C-1449 2025 -1446 2029 -1443 2033 C-1441 2035 -1440 2037 -1438 2040 C-1434 2043 -1432 2047 -1430 2051 C-1428 2054 -1426 2056 -1424 2058 C-1420 2062 -1418 2067 -1416 2072 C-1414 2076 -1412 2079 -1409 2083 C-1405 2088 -1404 2093 -1404 2099 C-1404 2103 -1403 2105 -1401 2107 C-1400 2108 -1400 2108 -1398 2110 C-1393 2115 -1391 2122 -1389 2129 C-1388 2135 -1385 2137 -1380 2141 C-1374 2147 -1372 2157 -1370 2166 C-1368 2166 -1366 2166 -1364 2167 C-1360 2161 -1360 2154 -1360 2147 C-1362 2139 -1363 2132 -1366 2124 C-1369 2113 -1372 2103 -1374 2093 C-1374 2091 -1374 2090 -1375 2088 C-1377 2074 -1377 2060 -1378 2045 C-1378 2045 -1378 2045 -1378 2042 C-1378 2035 -1378 2028 -1378 2021 C-1378 2016 -1378 2010 -1378 2005 C-1378 2002 -1378 2000 -1378 1997 C-1378 1982 -1380 1967 -1385 1953 C-1385 1951 -1386 1948 -1386 1946 C-1387 1945 -1387 1944 -1387 1943 C-1389 1939 -1390 1935 -1391 1930 C-1392 1925 -1394 1920 -1396 1914 C-1399 1908 -1401 1902 -1401 1895 C-1401 1893 -1401 1892 -1402 1891 C-1403 1872 -1403 1854 -1398 1835 C-1394 1820 -1392 1805 -1390 1789 C-1390 1789 -1390 1788 -1390 1787 C-1390 1784 -1390 1781 -1389 1778 C-1389 1768 -1386 1761 -1381 1754 C-1378 1748 -1376 1744 -1375 1738 C-1375 1737 -1375 1736 -1375 1736 C-1372 1723 -1372 1710 -1372 1697 C-1372 1686 -1371 1674 -1366 1664 C-1364 1654 -1369 1647 -1374 1639 C-1378 1634 -1383 1629 -1387 1624 C-1390 1621 -1393 1619 -1396 1616 C-1400 1610 -1406 1606 -1411 1602 C-1414 1599 -1417 1597 -1419 1595 C-1423 1591 -1428 1589 -1433 1586 C-1437 1585 -1440 1583 -1443 1580 C-1447 1576 -1454 1574 -1460 1572 C-1464 1571 -1468 1569 -1472 1566 C-1477 1563 -1482 1561 -1489 1560 C-1490 1559 -1491 1559 -1492 1559 C-1496 1558 -1500 1557 -1505 1556 C-1506 1555 -1507 1555 -1509 1555 C-1509 1554 -1509 1554 -1511 1554 C-1515 1553 -1519 1551 -1524 1550 C-1539 1543 -1555 1542 -1571 1542 C-1573 1542 -1574 1542 -1575 1542 C-1578 1542 -1580 1542 -1583 1542 C-1586 1542 -1588 1542 -1591 1542 C-1605 1542 -1620 1542 -1634 1543 Z M-1671 1961 C-1671 1961 -1672 1961 -1673 1961 C-1680 1962 -1686 1963 -1693 1965 C-1694 1965 -1694 1965 -1695 1965 C-1701 1966 -1706 1968 -1711 1971 C-1717 1975 -1723 1977 -1730 1978 C-1736 1980 -1741 1982 -1746 1987 C-1749 1990 -1753 1991 -1757 1993 C-1763 1995 -1767 1997 -1770 2002 C-1773 2006 -1777 2008 -1781 2010 C-1785 2013 -1788 2015 -1791 2019 C-1794 2021 -1796 2023 -1799 2025 C-1803 2028 -1806 2031 -1809 2035 C-1811 2038 -1813 2040 -1815 2042 C-1819 2046 -1821 2050 -1824 2054 C-1827 2058 -1830 2062 -1833 2066 C-1836 2069 -1839 2073 -1842 2077 C-1843 2079 -1845 2080 -1846 2082 C-1850 2086 -1852 2091 -1854 2096 C-1856 2099 -1858 2102 -1860 2105 C-1865 2110 -1866 2118 -1868 2124 C-1869 2129 -1871 2133 -1875 2137 C-1879 2144 -1881 2149 -1882 2157 C-1884 2163 -1886 2168 -1889 2173 C-1896 2186 -1896 2198 -1898 2212 C-1899 2224 -1901 2236 -1904 2247 C-1904 2248 -1904 2249 -1904 2250 C-1904 2250 -1904 2250 -1905 2252 C-1905 2256 -1905 2259 -1905 2263 C-1904 2263 -1903 2263 -1902 2264 C-1902 2262 -1901 2261 -1900 2260 C-1900 2259 -1900 2259 -1899 2258 C-1898 2256 -1898 2256 -1898 2254 C-1897 2253 -1896 2253 -1896 2253 C-1891 2251 -1888 2250 -1885 2246 C-1884 2244 -1884 2242 -1883 2240 C-1880 2232 -1876 2226 -1870 2220 C-1870 2219 -1869 2218 -1868 2217 C-1861 2209 -1853 2201 -1845 2194 C-1844 2193 -1843 2192 -1842 2191 C-1838 2188 -1834 2186 -1830 2184 C-1825 2181 -1822 2179 -1819 2176 C-1815 2172 -1809 2171 -1804 2170 C-1799 2168 -1795 2167 -1791 2164 C-1785 2159 -1778 2157 -1770 2156 C-1759 2154 -1749 2151 -1738 2147 C-1725 2142 -1712 2141 -1698 2141 C-1697 2141 -1696 2141 -1695 2141 C-1692 2141 -1690 2141 -1687 2141 C-1685 2141 -1682 2141 -1680 2141 C-1633 2141 -1633 2141 -1619 2149 C-1611 2153 -1604 2154 -1595 2156 C-1587 2157 -1581 2159 -1574 2164 C-1569 2166 -1564 2169 -1558 2171 C-1553 2172 -1550 2174 -1546 2177 C-1542 2180 -1538 2183 -1533 2185 C-1528 2188 -1524 2190 -1521 2195 C-1518 2198 -1513 2201 -1509 2203 C-1509 2203 -1508 2203 -1507 2203 C-1507 2203 -1507 2204 -1506 2204 C-1505 2207 -1504 2208 -1501 2210 C-1501 2211 -1500 2211 -1499 2212 C-1498 2213 -1496 2214 -1494 2215 C-1491 2218 -1488 2221 -1486 2224 C-1484 2226 -1483 2228 -1481 2230 C-1477 2232 -1475 2236 -1473 2240 C-1471 2242 -1470 2244 -1468 2246 C-1464 2250 -1462 2254 -1460 2260 C-1458 2264 -1456 2267 -1453 2271 C-1449 2275 -1448 2280 -1446 2285 C-1445 2291 -1443 2296 -1439 2301 C-1433 2308 -1432 2317 -1432 2326 C-1431 2334 -1430 2341 -1425 2348 C-1422 2353 -1421 2357 -1421 2363 C-1421 2364 -1421 2365 -1421 2366 C-1421 2367 -1421 2368 -1421 2369 C-1421 2376 -1421 2383 -1420 2390 C-1420 2393 -1421 2394 -1422 2397 C-1424 2391 -1426 2386 -1428 2381 C-1429 2377 -1431 2373 -1433 2370 C-1436 2364 -1437 2359 -1438 2353 C-1439 2345 -1440 2339 -1444 2332 C-1446 2328 -1448 2325 -1449 2321 C-1451 2314 -1454 2309 -1459 2304 C-1462 2299 -1464 2294 -1466 2288 C-1468 2282 -1470 2278 -1474 2274 C-1477 2270 -1478 2267 -1480 2262 C-1483 2256 -1486 2252 -1491 2248 C-1493 2245 -1495 2243 -1496 2240 C-1498 2237 -1501 2235 -1504 2233 C-1508 2230 -1510 2227 -1513 2224 C-1516 2220 -1520 2218 -1524 2216 C-1527 2215 -1529 2213 -1531 2211 C-1535 2206 -1540 2204 -1545 2202 C-1549 2200 -1552 2198 -1555 2195 C-1560 2191 -1566 2189 -1572 2188 C-1579 2185 -1584 2183 -1590 2179 C-1593 2177 -1595 2176 -1598 2176 C-1599 2175 -1600 2175 -1600 2175 C-1605 2174 -1609 2173 -1614 2172 C-1615 2172 -1615 2172 -1616 2172 C-1618 2172 -1621 2171 -1623 2171 C-1631 2170 -1638 2168 -1645 2165 C-1673 2155 -1709 2157 -1737 2167 C-1746 2169 -1754 2171 -1763 2172 C-1774 2173 -1782 2175 -1790 2182 C-1794 2185 -1797 2186 -1801 2187 C-1808 2189 -1814 2190 -1818 2196 C-1821 2199 -1823 2200 -1827 2202 C-1833 2204 -1836 2207 -1840 2213 C-1842 2215 -1844 2216 -1846 2217 C-1850 2219 -1853 2223 -1855 2226 C-1857 2229 -1859 2230 -1861 2231 C-1868 2236 -1870 2244 -1872 2252 C-1874 2252 -1876 2253 -1877 2254 C-1881 2257 -1882 2259 -1883 2264 C-1885 2268 -1887 2272 -1890 2276 C-1895 2281 -1896 2286 -1897 2293 C-1898 2295 -1898 2297 -1899 2300 C-1899 2300 -1899 2300 -1899 2302 C-1900 2306 -1901 2311 -1903 2315 C-1914 2341 -1918 2380 -1910 2408 C-1906 2421 -1907 2435 -1908 2448 C-1910 2457 -1909 2465 -1908 2473 C-1907 2474 -1907 2475 -1907 2476 C-1906 2482 -1904 2489 -1901 2495 C-1900 2500 -1899 2505 -1897 2510 C-1895 2520 -1893 2527 -1888 2536 C-1886 2541 -1884 2546 -1883 2552 C-1882 2557 -1880 2560 -1878 2564 C-1871 2578 -1868 2595 -1866 2610 C-1866 2616 -1863 2619 -1859 2622 C-1858 2623 -1858 2623 -1857 2623 C-1857 2624 -1857 2624 -1855 2625 C-1853 2626 -1853 2626 -1851 2626 C-1851 2631 -1851 2636 -1852 2642 C-1852 2645 -1852 2648 -1851 2651 C-1850 2658 -1850 2665 -1850 2671 C-1849 2672 -1849 2673 -1849 2674 C-1849 2675 -1849 2676 -1849 2677 C-1849 2679 -1849 2682 -1849 2684 C-1848 2690 -1848 2696 -1848 2702 C-1848 2703 -1848 2704 -1848 2704 C-1847 2728 -1847 2752 -1847 2776 C-1847 2783 -1847 2790 -1846 2797 C-1846 2800 -1846 2804 -1846 2807 C-1846 2816 -1846 2826 -1845 2835 C-1845 2839 -1845 2842 -1846 2846 C-1848 2854 -1847 2862 -1847 2870 C-1847 2872 -1847 2875 -1847 2878 C-1847 2893 -1847 2907 -1843 2921 C-1840 2935 -1838 2948 -1836 2962 C-1835 2972 -1833 2979 -1827 2987 C-1824 2992 -1823 2997 -1822 3002 C-1820 3009 -1818 3014 -1813 3020 C-1810 3024 -1808 3029 -1805 3034 C-1802 3039 -1800 3043 -1795 3047 C-1793 3050 -1792 3052 -1790 3055 C-1787 3060 -1783 3064 -1778 3068 C-1775 3071 -1772 3074 -1770 3077 C-1768 3079 -1766 3081 -1764 3083 C-1762 3086 -1759 3089 -1757 3092 C-1755 3095 -1752 3098 -1748 3101 C-1746 3103 -1745 3104 -1743 3107 C-1739 3111 -1735 3113 -1730 3116 C-1726 3117 -1723 3119 -1720 3123 C-1716 3127 -1712 3129 -1707 3132 C-1703 3133 -1701 3135 -1698 3138 C-1694 3142 -1689 3144 -1684 3146 C-1674 3150 -1674 3150 -1671 3153 C-1667 3156 -1663 3157 -1658 3158 C-1657 3158 -1656 3159 -1655 3159 C-1652 3160 -1648 3161 -1645 3161 C-1638 3163 -1634 3165 -1628 3169 C-1623 3172 -1617 3174 -1611 3175 C-1607 3176 -1603 3177 -1599 3179 C-1597 3179 -1595 3180 -1593 3181 C-1593 3181 -1593 3181 -1591 3181 C-1583 3184 -1576 3184 -1568 3185 C-1556 3186 -1545 3187 -1533 3190 C-1523 3192 -1513 3192 -1503 3192 C-1502 3192 -1502 3192 -1501 3192 C-1497 3192 -1493 3192 -1489 3192 C-1486 3192 -1483 3192 -1480 3192 C-1463 3192 -1446 3192 -1429 3189 C-1423 3189 -1418 3188 -1413 3188 C-1400 3187 -1390 3185 -1379 3180 C-1374 3177 -1369 3175 -1363 3174 C-1355 3172 -1349 3169 -1342 3165 C-1339 3163 -1335 3161 -1332 3160 C-1325 3156 -1320 3153 -1315 3148 C-1313 3145 -1310 3143 -1307 3141 C-1301 3136 -1299 3129 -1297 3122 C-1296 3121 -1296 3120 -1295 3119 C-1295 3117 -1294 3114 -1293 3112 C-1293 3111 -1292 3109 -1291 3107 C-1289 3101 -1289 3094 -1289 3087 C-1289 3085 -1288 3083 -1288 3081 C-1288 3080 -1288 3078 -1288 3076 C-1288 3074 -1288 3071 -1287 3069 C-1286 3062 -1288 3057 -1291 3050 C-1297 3037 -1296 3020 -1293 3006 C-1291 3003 -1289 3000 -1287 2997 C-1284 2993 -1282 2989 -1280 2985 C-1279 2985 -1278 2985 -1277 2985 C-1276 2987 -1276 2989 -1276 2993 C-1276 2994 -1276 2995 -1276 2996 C-1276 2997 -1276 2998 -1276 2999 C-1276 3001 -1276 3002 -1276 3004 C-1275 3008 -1275 3012 -1275 3017 C-1275 3019 -1275 3021 -1275 3024 C-1275 3026 -1275 3028 -1275 3031 C-1275 3032 -1275 3033 -1275 3034 C-1275 3034 -1275 3034 -1275 3036 C-1274 3039 -1273 3040 -1271 3042 C-1269 3042 -1269 3042 -1267 3042 C-1267 3042 -1267 3042 -1265 3041 C-1260 3039 -1259 3033 -1257 3029 C-1256 3026 -1255 3024 -1254 3021 C-1254 3021 -1254 3020 -1254 3019 C-1246 2997 -1243 2974 -1243 2951 C-1243 2949 -1243 2948 -1243 2947 C-1243 2944 -1243 2941 -1243 2938 C-1243 2937 -1243 2936 -1243 2936 C-1243 2917 -1247 2900 -1252 2882 C-1253 2878 -1254 2873 -1254 2869 C-1256 2854 -1260 2842 -1267 2828 C-1269 2824 -1270 2820 -1272 2815 C-1273 2810 -1276 2806 -1280 2802 C-1286 2795 -1287 2784 -1289 2775 C-1290 2772 -1290 2770 -1291 2767 C-1291 2767 -1291 2766 -1291 2766 C-1292 2762 -1293 2758 -1294 2754 C-1297 2742 -1299 2731 -1300 2719 C-1302 2708 -1305 2698 -1308 2687 C-1312 2676 -1313 2664 -1314 2652 C-1316 2637 -1317 2623 -1321 2608 C-1324 2599 -1326 2590 -1327 2581 C-1327 2580 -1327 2580 -1327 2578 C-1329 2564 -1329 2550 -1329 2536 C-1330 2508 -1332 2481 -1335 2453 C-1336 2442 -1337 2432 -1338 2421 C-1339 2408 -1341 2396 -1342 2383 C-1344 2368 -1344 2354 -1344 2340 C-1344 2317 -1347 2297 -1353 2276 C-1356 2266 -1358 2256 -1360 2245 C-1362 2234 -1365 2222 -1368 2210 C-1371 2203 -1372 2195 -1373 2188 C-1375 2182 -1377 2178 -1381 2174 C-1386 2169 -1388 2162 -1389 2156 C-1391 2148 -1392 2143 -1398 2137 C-1403 2131 -1403 2122 -1403 2115 C-1404 2111 -1404 2109 -1406 2106 C-1408 2105 -1408 2105 -1411 2103 C-1415 2100 -1416 2095 -1418 2091 C-1420 2087 -1422 2086 -1425 2083 C-1429 2080 -1433 2077 -1435 2073 C-1438 2070 -1440 2067 -1443 2065 C-1446 2062 -1449 2059 -1451 2055 C-1453 2052 -1456 2049 -1459 2046 C-1462 2042 -1464 2039 -1467 2036 C-1470 2031 -1474 2027 -1478 2024 C-1481 2021 -1483 2018 -1486 2015 C-1489 2012 -1492 2010 -1497 2007 C-1499 2005 -1502 2003 -1504 2001 C-1509 1997 -1515 1994 -1521 1991 C-1525 1990 -1528 1988 -1531 1985 C-1537 1981 -1543 1979 -1549 1977 C-1556 1975 -1560 1973 -1566 1969 C-1575 1963 -1587 1963 -1598 1962 C-1600 1962 -1602 1961 -1604 1961 C-1614 1960 -1625 1960 -1635 1960 C-1638 1960 -1641 1960 -1644 1960 C-1653 1960 -1662 1960 -1671 1961 Z M-799 1969 C-801 1970 -802 1970 -803 1970 C-806 1971 -809 1972 -811 1973 C-830 1977 -830 1977 -838 1979 C-847 1980 -854 1984 -862 1988 C-869 1991 -875 1993 -882 1995 C-888 1996 -894 1998 -900 2002 C-902 2003 -904 2004 -906 2006 C-906 2006 -907 2006 -908 2007 C-909 2007 -910 2008 -911 2009 C-915 2011 -918 2013 -920 2018 C-920 2018 -920 2019 -920 2020 C-920 2020 -920 2020 -920 2022 C-920 2024 -920 2026 -919 2028 C-917 2036 -918 2044 -918 2052 C-918 2054 -917 2056 -917 2057 C-917 2063 -917 2068 -917 2073 C-917 2076 -917 2079 -917 2082 C-916 2117 -916 2152 -916 2187 C-916 2191 -916 2194 -916 2198 C-916 2226 -916 2253 -918 2280 C-918 2287 -918 2294 -919 2301 C-919 2322 -921 2344 -930 2364 C-934 2373 -935 2382 -937 2392 C-939 2403 -940 2414 -946 2424 C-958 2448 -960 2486 -960 2513 C-960 2513 -960 2513 -960 2515 C-960 2526 -957 2536 -953 2547 C-949 2557 -948 2565 -949 2576 C-949 2576 -949 2577 -949 2578 C-951 2594 -955 2605 -964 2618 C-966 2622 -967 2626 -967 2631 C-966 2633 -966 2634 -963 2636 C-960 2637 -958 2636 -955 2636 C-953 2633 -953 2633 -952 2630 C-950 2626 -948 2623 -944 2621 C-943 2620 -942 2619 -941 2618 C-940 2618 -940 2618 -939 2617 C-937 2616 -936 2614 -935 2612 C-932 2608 -928 2606 -924 2604 C-918 2601 -914 2599 -910 2595 C-905 2591 -900 2590 -894 2589 C-888 2588 -882 2586 -877 2583 C-869 2579 -863 2577 -854 2576 C-847 2575 -841 2573 -834 2571 C-828 2568 -822 2566 -816 2565 C-815 2565 -815 2565 -813 2565 C-803 2563 -793 2562 -783 2562 C-782 2562 -781 2562 -780 2562 C-777 2562 -774 2562 -772 2562 C-769 2562 -767 2562 -764 2562 C-740 2562 -718 2562 -695 2571 C-689 2574 -683 2575 -676 2576 C-660 2578 -660 2578 -654 2583 C-649 2586 -645 2588 -639 2589 C-633 2591 -628 2593 -624 2598 C-620 2602 -615 2604 -609 2606 C-604 2608 -601 2610 -597 2615 C-595 2617 -592 2618 -589 2620 C-583 2623 -579 2627 -575 2633 C-573 2635 -570 2637 -568 2639 C-566 2641 -564 2643 -563 2645 C-560 2649 -560 2649 -559 2650 C-553 2649 -553 2649 -550 2647 C-549 2642 -549 2637 -551 2632 C-552 2627 -551 2621 -551 2616 C-551 2615 -551 2615 -551 2614 C-551 2592 -548 2570 -544 2548 C-539 2527 -540 2504 -545 2483 C-548 2467 -549 2451 -551 2435 C-551 2431 -551 2427 -552 2423 C-555 2395 -555 2367 -553 2339 C-552 2330 -551 2321 -550 2312 C-550 2311 -550 2310 -550 2308 C-549 2299 -549 2299 -549 2294 C-548 2274 -546 2255 -540 2237 C-536 2223 -535 2208 -534 2193 C-532 2178 -530 2163 -525 2148 C-522 2137 -520 2126 -519 2114 C-517 2097 -514 2079 -509 2062 C-508 2056 -507 2049 -505 2043 C-505 2042 -505 2041 -505 2040 C-504 2038 -504 2036 -504 2034 C-503 2032 -503 2030 -503 2029 C-502 2028 -502 2027 -502 2026 C-502 2025 -502 2024 -501 2023 C-501 2019 -502 2017 -504 2014 C-508 2010 -511 2009 -516 2008 C-521 2006 -525 2004 -529 2001 C-534 1997 -539 1995 -546 1993 C-554 1991 -561 1989 -568 1986 C-580 1979 -592 1978 -605 1976 C-606 1976 -606 1976 -607 1976 C-608 1976 -609 1976 -610 1975 C-618 1974 -626 1973 -633 1971 C-640 1968 -647 1967 -654 1966 C-654 1966 -654 1966 -656 1965 C-670 1964 -685 1963 -699 1963 C-700 1963 -702 1963 -704 1963 C-707 1963 -711 1963 -714 1963 C-718 1963 -721 1963 -724 1963 C-776 1963 -776 1963 -799 1969 Z M-808 2586 C-817 2589 -826 2590 -835 2591 C-849 2593 -861 2594 -873 2602 C-878 2605 -884 2606 -890 2608 C-898 2609 -903 2613 -909 2618 C-912 2621 -916 2622 -920 2624 C-925 2626 -929 2630 -933 2633 C-936 2636 -940 2638 -944 2640 C-955 2645 -962 2656 -968 2666 C-970 2668 -972 2671 -974 2673 C-980 2680 -983 2688 -987 2695 C-988 2697 -989 2699 -991 2701 C-995 2707 -995 2715 -996 2722 C-998 2732 -1000 2741 -1004 2751 C-1008 2760 -1010 2768 -1012 2778 C-1013 2788 -1016 2796 -1020 2805 C-1024 2816 -1026 2827 -1027 2839 C-1027 2839 -1027 2840 -1027 2841 C-1029 2856 -1030 2872 -1030 2887 C-1029 2889 -1029 2891 -1029 2893 C-1029 2911 -1029 2929 -1028 2946 C-1028 2947 -1028 2948 -1028 2949 C-1028 2952 -1027 2954 -1027 2957 C-1027 2958 -1027 2958 -1027 2959 C-1026 2966 -1025 2973 -1020 2978 C-1016 2977 -1014 2976 -1011 2972 C-1011 2972 -1011 2972 -1009 2971 C-1009 2970 -1008 2969 -1008 2969 C-1005 2965 -1002 2962 -999 2958 C-996 2954 -992 2951 -987 2948 C-984 2947 -983 2945 -981 2943 C-981 2942 -981 2941 -981 2941 C-978 2939 -975 2938 -972 2937 C-967 2934 -963 2932 -958 2929 C-952 2924 -946 2923 -939 2922 C-927 2921 -919 2918 -909 2913 C-899 2907 -888 2906 -876 2906 C-866 2906 -856 2905 -846 2904 C-845 2904 -844 2903 -844 2903 C-838 2902 -832 2902 -826 2900 C-812 2898 -799 2898 -785 2898 C-785 2898 -785 2898 -782 2898 C-762 2898 -743 2899 -724 2903 C-717 2905 -709 2905 -702 2906 C-702 2906 -701 2906 -700 2906 C-693 2907 -686 2908 -678 2908 C-664 2909 -651 2912 -638 2917 C-631 2920 -625 2921 -618 2922 C-610 2923 -604 2924 -597 2929 C-592 2932 -587 2933 -581 2935 C-574 2937 -570 2940 -565 2945 C-562 2947 -559 2949 -555 2951 C-550 2953 -548 2956 -544 2960 C-542 2963 -540 2964 -538 2966 C-533 2968 -531 2971 -528 2975 C-526 2978 -524 2980 -521 2983 C-521 2983 -520 2983 -519 2983 C-519 2983 -519 2983 -519 2984 C-513 3004 -513 3004 -509 3010 C-506 3015 -506 3023 -508 3028 C-508 3029 -508 3029 -509 3030 C-509 3033 -510 3035 -510 3038 C-510 3045 -511 3050 -516 3056 C-519 3057 -520 3058 -523 3058 C-525 3051 -524 3046 -522 3040 C-520 3033 -521 3027 -523 3020 C-523 3019 -524 3018 -524 3018 C-526 3011 -528 3005 -532 3000 C-533 2997 -534 2995 -535 2992 C-537 2987 -540 2985 -544 2982 C-547 2980 -549 2977 -552 2974 C-555 2970 -559 2968 -564 2966 C-568 2964 -570 2963 -573 2960 C-578 2956 -583 2954 -588 2953 C-594 2951 -598 2949 -603 2945 C-613 2938 -627 2936 -640 2935 C-647 2934 -652 2932 -658 2928 C-659 2928 -660 2927 -661 2926 C-661 2926 -662 2925 -663 2925 C-672 2921 -682 2921 -691 2921 C-693 2921 -694 2921 -696 2921 C-700 2920 -705 2920 -709 2920 C-710 2920 -711 2920 -711 2920 C-754 2918 -797 2918 -841 2920 C-841 2920 -842 2920 -842 2920 C-855 2921 -868 2921 -880 2923 C-881 2923 -882 2923 -883 2923 C-891 2924 -899 2926 -906 2931 C-913 2935 -921 2936 -929 2937 C-936 2939 -943 2940 -950 2944 C-956 2947 -961 2949 -968 2951 C-976 2953 -980 2955 -985 2962 C-987 2964 -989 2966 -991 2967 C-995 2969 -997 2972 -1000 2976 C-1001 2979 -1003 2981 -1005 2983 C-1011 2989 -1012 2994 -1012 3003 C-1012 3004 -1012 3005 -1012 3005 C-1012 3010 -1012 3015 -1011 3020 C-1010 3024 -1010 3029 -1009 3033 C-1009 3038 -1008 3044 -1007 3049 C-1005 3065 -1004 3081 -1004 3097 C-1004 3104 -1004 3110 -1002 3116 C-1001 3120 -1001 3124 -1001 3128 C-1002 3142 -1002 3142 -997 3148 C-994 3150 -991 3151 -987 3151 C-981 3149 -977 3145 -973 3140 C-968 3135 -963 3133 -956 3132 C-950 3132 -950 3132 -947 3134 C-947 3134 -947 3134 -946 3136 C-947 3141 -948 3143 -953 3147 C-955 3148 -957 3149 -960 3150 C-961 3150 -962 3151 -963 3152 C-964 3152 -964 3152 -965 3153 C-968 3154 -971 3156 -974 3157 C-975 3158 -975 3158 -976 3158 C-979 3160 -981 3161 -983 3165 C-984 3169 -983 3172 -981 3175 C-978 3178 -974 3180 -970 3181 C-967 3181 -965 3180 -962 3179 C-955 3177 -948 3179 -941 3180 C-933 3182 -925 3183 -916 3185 C-915 3185 -914 3185 -914 3185 C-913 3185 -912 3185 -911 3185 C-910 3185 -908 3186 -907 3186 C-904 3187 -900 3187 -897 3187 C-896 3187 -895 3187 -895 3187 C-892 3187 -890 3187 -888 3187 C-887 3187 -886 3187 -886 3187 C-874 3188 -862 3188 -851 3185 C-841 3183 -832 3185 -823 3187 C-816 3188 -808 3189 -801 3189 C-800 3189 -800 3189 -799 3189 C-796 3189 -793 3189 -791 3189 C-790 3189 -789 3189 -788 3189 C-783 3189 -778 3189 -773 3189 C-770 3190 -767 3190 -764 3190 C-749 3190 -734 3189 -720 3187 C-695 3184 -671 3184 -646 3186 C-640 3187 -633 3187 -627 3187 C-624 3187 -622 3187 -619 3186 C-594 3186 -594 3186 -583 3184 C-573 3181 -562 3182 -552 3184 C-547 3185 -544 3184 -539 3182 C-539 3178 -539 3176 -541 3173 C-546 3169 -551 3167 -556 3164 C-561 3162 -564 3159 -568 3155 C-573 3150 -579 3149 -585 3147 C-590 3145 -594 3143 -597 3141 C-599 3139 -601 3139 -603 3138 C-603 3137 -603 3136 -603 3136 C-607 3134 -610 3134 -613 3134 C-614 3134 -614 3134 -615 3133 C-617 3133 -618 3133 -619 3133 C-621 3133 -622 3132 -623 3132 C-628 3132 -632 3132 -636 3133 C-650 3134 -669 3137 -681 3128 C-684 3126 -684 3123 -684 3120 C-684 3119 -684 3118 -684 3118 C-666 3113 -648 3116 -630 3120 C-630 3120 -630 3120 -628 3121 C-619 3123 -613 3126 -606 3133 C-604 3134 -602 3133 -600 3133 C-588 3131 -574 3131 -563 3138 C-563 3138 -563 3138 -562 3139 C-557 3142 -552 3142 -546 3143 C-536 3144 -536 3144 -532 3149 C-530 3151 -529 3153 -527 3156 C-524 3160 -521 3164 -518 3168 C-518 3168 -517 3169 -517 3169 C-513 3173 -513 3173 -511 3175 C-499 3176 -499 3176 -495 3172 C-491 3169 -489 3165 -486 3162 C-486 3161 -485 3160 -485 3160 C-483 3157 -482 3155 -482 3152 C-485 3142 -492 3135 -499 3129 C-504 3125 -504 3125 -505 3122 C-504 3121 -504 3120 -504 3120 C-502 3118 -500 3119 -498 3119 C-497 3119 -497 3119 -495 3119 C-493 3119 -491 3119 -489 3119 C-481 3119 -481 3119 -478 3117 C-471 3110 -472 3101 -472 3093 C-472 3091 -471 3088 -471 3086 C-471 3086 -471 3086 -471 3083 C-471 3080 -471 3077 -471 3073 C-469 3058 -470 3043 -472 3028 C-472 3026 -473 3025 -473 3024 C-473 3021 -474 3018 -474 3014 C-474 3013 -475 3012 -475 3011 C-476 3001 -478 2993 -485 2985 C-488 2980 -490 2975 -492 2970 C-494 2964 -496 2960 -499 2955 C-504 2946 -503 2934 -503 2924 C-503 2923 -503 2922 -503 2921 C-503 2918 -503 2915 -503 2913 C-503 2906 -503 2899 -503 2892 C-503 2891 -503 2891 -503 2890 C-503 2877 -503 2864 -504 2852 C-504 2851 -504 2850 -504 2849 C-504 2808 -504 2808 -513 2791 C-517 2782 -518 2773 -519 2764 C-520 2753 -523 2743 -528 2734 C-528 2733 -529 2732 -529 2730 C-529 2730 -530 2729 -530 2729 C-532 2724 -533 2720 -535 2715 C-537 2709 -539 2704 -543 2698 C-544 2696 -545 2694 -546 2693 C-552 2683 -558 2675 -565 2667 C-566 2666 -567 2664 -568 2663 C-570 2660 -572 2659 -575 2657 C-579 2654 -582 2651 -586 2647 C-590 2643 -594 2639 -599 2636 C-602 2635 -604 2633 -606 2630 C-609 2626 -615 2624 -620 2622 C-626 2619 -626 2619 -629 2616 C-634 2610 -640 2609 -648 2607 C-653 2605 -657 2604 -661 2601 C-673 2593 -690 2592 -704 2591 C-712 2591 -720 2590 -727 2588 C-729 2588 -730 2588 -731 2588 C-736 2586 -741 2585 -746 2584 C-752 2583 -757 2582 -762 2582 C-763 2581 -764 2581 -765 2581 C-780 2580 -793 2582 -808 2586 Z " fill="#000000" transform="translate(2095.68,61.93)"/>
<path d="M0 0 C1 0 3 0 5 1 C5 7 4 12 1 18 C0 19 -0 20 -1 21 C-5 24 -6 27 -7 32 C-9 38 -11 43 -16 47 C-20 52 -22 55 -23 61 C-24 67 -26 71 -31 76 C-34 79 -35 82 -36 86 C-38 93 -40 96 -46 100 C-49 103 -50 107 -52 111 C-54 116 -56 120 -60 125 C-64 129 -66 134 -67 140 C-68 145 -71 149 -75 154 C-78 157 -79 160 -81 163 C-83 169 -86 174 -91 178 C-91 178 -92 178 -93 178 C-94 180 -95 183 -96 186 C-99 196 -99 196 -103 199 C-107 203 -110 208 -112 213 C-114 218 -117 221 -121 224 C-124 227 -126 232 -127 236 C-129 241 -131 244 -136 247 C-139 250 -140 253 -142 257 C-146 266 -146 266 -150 269 C-154 272 -156 276 -158 281 C-160 286 -163 289 -169 292 C-172 295 -174 299 -175 303 C-177 306 -178 307 -181 310 C-182 309 -183 309 -185 309 C-184 302 -183 298 -179 294 C-178 293 -178 293 -177 292 C-175 290 -174 286 -173 283 C-171 277 -169 273 -164 268 C-161 265 -159 261 -158 257 C-155 252 -153 249 -150 246 C-145 243 -144 239 -142 234 C-141 230 -138 226 -135 223 C-134 223 -133 223 -133 223 C-131 219 -130 215 -129 212 C-127 205 -123 201 -118 196 C-115 193 -114 190 -113 187 C-111 182 -109 179 -105 176 C-101 173 -100 168 -99 164 C-97 158 -94 154 -90 149 C-87 145 -85 142 -84 138 C-82 131 -79 128 -74 124 C-70 120 -69 117 -68 112 C-66 106 -64 103 -60 98 C-57 95 -55 91 -53 87 C-51 81 -48 77 -43 74 C-39 71 -38 67 -37 63 C-35 57 -33 53 -28 48 C-24 44 -24 41 -23 37 C-20 29 -17 24 -11 19 C-8 16 -7 12 -5 8 C-4 4 -3 2 0 0 Z " fill="#000000" transform="translate(865,234)"/>
<path d="M0 0 C5 1 5 1 7 3 C13 15 13 27 12 40 C12 48 13 52 19 58 C22 63 24 70 26 77 C26 77 26 78 26 79 C28 87 28 94 26 102 C24 102 23 102 22 102 C17 96 17 90 16 83 C16 74 14 66 11 57 C11 56 10 54 10 53 C9 49 7 46 6 43 C-0 30 -0 14 0 0 Z " fill="#000000" transform="translate(1577,742)"/>
<path d="M0 0 C2 0 3 0 5 2 C7 5 8 8 9 11 C9 12 9 13 10 14 C10 15 10 16 11 18 C11 18 11 19 11 19 C13 25 13 31 14 37 C14 39 14 41 14 43 C14 44 14 45 14 46 C14 48 15 50 16 53 C16 53 17 53 17 53 C21 55 24 58 25 63 C26 65 26 67 27 70 C27 70 27 71 27 71 C28 78 28 85 28 91 C28 92 28 92 28 95 C28 96 28 97 28 98 C28 99 28 100 28 101 C28 104 28 104 27 106 C22 104 20 101 19 98 C18 95 17 92 17 90 C17 89 17 88 17 88 C16 83 15 79 15 74 C14 72 14 69 14 67 C14 65 13 63 13 62 C12 56 11 51 8 47 C2 38 1 28 1 18 C1 14 0 10 0 7 C-0 4 -0 2 0 0 Z " fill="#000000" transform="translate(1622,920)"/>
<path d="M0 0 C0 0 1 0 3 1 C3 5 4 10 4 15 C4 15 4 16 4 17 C4 19 4 21 4 23 C4 24 4 25 4 25 C4 77 4 77 -3 93 C-3 93 -4 93 -5 93 C-9 64 -10 28 -1 1 C-0 0 -0 0 0 0 Z " fill="#000000" transform="translate(881,976)"/>
<path d="M0 0 C3 0 5 0 8 3 C11 8 12 14 13 21 C13 21 13 22 13 23 C14 28 15 33 15 38 C15 39 15 40 15 41 C15 43 15 45 16 46 C16 53 18 57 22 62 C24 65 25 69 26 74 C26 74 26 75 26 76 C26 78 26 80 27 82 C27 83 27 84 27 85 C29 101 29 101 26 109 C23 108 22 108 20 106 C17 99 17 93 16 86 C12 63 12 63 6 54 C2 47 1 39 0 31 C0 29 0 27 -0 25 C-0 19 -1 13 -1 7 C-1 6 -1 5 -1 5 C-1 1 -1 1 0 0 Z " fill="#000000" transform="translate(1682,1153)"/>
<path d="M0 0 C1 0 1 0 4 2 C6 7 7 12 8 18 C8 19 8 19 8 20 C9 28 9 36 9 43 C10 52 10 61 11 70 C11 70 11 70 11 71 C11 79 11 88 12 96 C12 99 12 103 12 106 C13 121 14 134 20 148 C21 152 22 157 23 161 C23 162 23 163 23 164 C24 168 24 171 25 175 C25 175 25 175 25 178 C27 193 28 207 28 222 C28 223 28 224 28 224 C28 231 28 238 29 244 C29 263 30 282 34 300 C36 312 37 324 38 336 C38 339 38 341 39 344 C41 375 42 406 42 438 C42 439 42 440 42 441 C42 473 41 505 40 538 C40 541 40 543 40 546 C40 551 40 555 39 559 C39 561 39 563 39 564 C38 587 38 587 34 592 C34 593 33 593 33 594 C27 584 27 572 27 562 C27 560 27 559 27 558 C27 555 27 553 27 550 C27 546 27 542 27 538 C27 529 27 521 27 513 C26 500 26 488 26 475 C26 475 26 474 26 473 C26 452 25 430 25 409 C25 407 24 405 24 403 C23 375 21 347 18 319 C17 318 17 317 17 317 C17 316 17 315 17 315 C17 314 17 313 17 313 C17 311 16 310 16 308 C11 265 10 221 10 177 C10 174 10 171 10 168 C10 166 10 164 10 162 C10 156 9 149 9 143 C9 142 9 141 9 141 C9 137 8 133 6 130 C4 124 3 119 2 114 C2 113 2 112 2 111 C-1 92 -0 73 -0 53 C-0 48 -1 43 -1 37 C-2 34 -2 30 -2 27 C-2 26 -2 26 -2 24 C-2 23 -2 22 -2 20 C-2 18 -2 16 -2 14 C-2 12 -2 11 -2 9 C-2 9 -2 8 -2 7 C-2 2 -2 2 0 0 Z " fill="#000000" transform="translate(1085,1308)"/>
<path d="M0 0 C1 0 3 0 5 0 C9 0 13 0 17 0 C22 0 27 0 32 0 C36 0 40 0 44 0 C46 0 48 0 50 0 C80 0 80 0 89 6 C91 8 91 8 92 11 C89 13 89 13 86 13 C85 13 84 13 83 13 C82 13 81 13 80 13 C79 13 78 13 77 13 C70 13 63 12 55 12 C30 10 6 10 -18 12 C-19 12 -20 13 -21 13 C-50 15 -50 15 -58 21 C-65 27 -74 28 -82 30 C-88 32 -92 33 -96 38 C-100 42 -104 44 -110 46 C-117 49 -122 53 -128 57 C-129 58 -130 59 -131 60 C-141 67 -150 77 -158 86 C-159 87 -160 88 -161 89 C-165 93 -166 97 -168 102 C-169 105 -171 107 -173 109 C-175 108 -175 108 -177 108 C-179 105 -179 103 -179 100 C-178 94 -176 89 -172 83 C-172 83 -172 82 -171 81 C-166 72 -161 64 -153 57 C-153 56 -152 56 -151 55 C-145 49 -139 45 -131 41 C-128 39 -126 38 -124 35 C-121 33 -118 32 -115 30 C-114 30 -113 30 -112 29 C-111 29 -110 29 -109 29 C-104 27 -100 24 -95 21 C-89 16 -82 15 -74 14 C-64 13 -57 10 -49 4 C-43 2 -37 1 -31 0 C-30 0 -29 0 -28 0 C-19 -0 -9 -0 0 0 Z " fill="#000000" transform="translate(379.67,2353.95)"/>
<path d="M0 0 C20 -0 20 -0 28 6 C33 10 39 11 45 13 C51 14 56 17 61 22 C63 24 66 25 69 27 C75 29 79 32 83 36 C85 39 87 41 90 43 C97 49 103 56 109 64 C111 66 112 67 114 68 C118 71 120 76 123 80 C124 83 126 86 128 88 C132 92 134 96 135 102 C137 107 138 109 143 113 C149 120 152 130 155 139 C155 141 156 143 157 145 C160 154 162 162 163 172 C164 179 166 186 168 194 C170 199 171 204 171 209 C172 213 173 216 174 220 C176 226 177 231 178 238 C178 245 179 250 182 256 C185 262 186 269 188 276 C188 276 189 276 190 276 C197 250 196 223 195 197 C195 196 195 195 195 195 C194 188 193 183 192 177 C191 168 192 162 196 155 C203 161 204 168 205 177 C205 178 205 180 205 181 C205 184 205 187 205 190 C206 193 206 195 206 197 C207 220 206 243 205 266 C205 266 205 266 204 268 C204 272 204 276 204 281 C203 282 203 283 203 284 C203 288 203 292 202 296 C202 299 201 301 201 304 C201 314 200 322 196 331 C190 344 191 363 194 376 C195 382 195 387 194 392 C194 399 194 405 198 411 C199 411 199 412 200 413 C208 422 210 435 209 447 C209 458 209 464 217 473 C219 477 220 481 221 486 C221 486 221 487 222 488 C223 493 223 499 223 505 C222 505 221 506 221 507 C218 506 216 506 214 504 C211 500 210 496 210 491 C210 482 208 474 203 466 C195 455 194 442 193 429 C192 418 189 410 185 400 C182 393 181 386 181 378 C182 369 182 361 180 352 C179 347 179 341 179 335 C179 330 178 325 174 321 C173 320 173 320 172 320 C168 316 163 312 162 306 C162 303 162 301 163 298 C165 292 165 287 165 281 C165 280 165 280 165 278 C165 276 165 274 165 271 C165 268 165 265 165 262 C165 260 165 258 165 256 C165 255 165 255 165 253 C165 247 164 242 162 236 C161 232 162 228 163 224 C163 216 163 216 160 212 C160 212 159 211 159 211 C157 209 156 208 154 206 C154 205 153 205 153 204 C150 200 150 196 151 191 C151 162 151 162 143 153 C141 152 140 151 138 150 C133 144 133 137 132 130 C131 123 129 119 124 114 C120 109 118 105 117 99 C116 95 114 93 111 90 C107 86 105 83 102 79 C99 75 97 71 92 68 C90 66 89 65 87 63 C84 58 80 55 76 52 C75 51 74 50 74 50 C71 47 67 45 63 43 C60 41 58 39 56 36 C53 31 48 30 43 29 C36 27 33 24 28 19 C25 15 22 14 18 14 C10 12 4 10 -1 5 C-0 3 -0 1 0 0 Z " fill="#000000" transform="translate(483,2370)"/>
<path d="M0 0 C1 -0 2 -0 3 -0 C7 -0 10 -0 14 -0 C16 -0 18 -0 20 -0 C28 -0 36 -0 43 -0 C50 -0 57 -0 65 -0 C71 -0 77 -0 83 -0 C87 -0 90 -0 94 -0 C97 -0 101 -0 104 -0 C105 -0 107 -0 108 -0 C120 -0 120 -0 125 4 C126 6 126 6 126 8 C125 10 125 10 123 13 C117 16 111 16 105 16 C104 16 103 16 102 16 C100 16 97 16 94 16 C92 16 90 16 88 16 C83 16 78 16 73 16 C65 16 57 16 49 16 C47 16 45 16 43 16 C33 16 22 16 12 16 C12 16 12 16 9 16 C6 16 2 16 -1 17 C-9 17 -17 17 -24 13 C-25 12 -25 12 -26 9 C-25 6 -24 5 -21 3 C-14 -0 -7 -0 0 0 Z " fill="#000000" transform="translate(504.81,2669.70)"/>
<path d="M0 0 C-0 1 -0 1 -1 4 C-3 5 -3 5 -6 6 C-7 6 -7 6 -9 7 C-27 13 -47 11 -65 11 C-69 11 -72 11 -76 11 C-78 11 -81 11 -84 11 C-85 11 -86 11 -87 11 C-111 11 -111 11 -118 8 C-119 6 -119 6 -120 5 C-118 2 -117 2 -114 1 C-113 1 -112 1 -111 1 C-110 1 -110 1 -109 0 C-107 0 -105 0 -103 0 C-102 0 -101 0 -99 0 C-88 -0 -77 -1 -66 -2 C-55 -2 -55 -2 -51 -3 C-46 -4 -40 -4 -35 -4 C-34 -4 -33 -4 -32 -4 C-20 -5 -10 -5 0 0 Z " fill="#000000" transform="translate(386,2684)"/>
<path d="M0 0 C3 -0 5 -0 8 1 C11 4 12 6 13 10 C13 11 13 12 14 13 C14 14 14 15 15 17 C16 21 18 24 22 26 C27 30 28 37 30 43 C32 49 33 52 39 56 C44 60 44 69 45 76 C46 80 46 80 48 82 C50 82 50 82 52 83 C56 84 56 84 58 86 C59 88 59 90 60 92 C60 92 60 93 60 94 C61 104 61 104 59 108 C59 108 58 109 58 110 C55 109 53 109 50 107 C46 102 46 96 45 89 C44 84 44 84 42 82 C39 81 39 81 37 80 C32 77 31 74 29 70 C29 68 28 67 28 65 C28 65 27 64 27 63 C26 58 26 58 26 56 C25 55 25 55 23 55 C19 53 16 49 13 44 C13 41 13 41 12 38 C11 28 11 28 6 24 C0 18 -1 13 -1 6 C-1 3 -1 2 0 0 Z " fill="#000000" transform="translate(738,2948)"/>
<path d="M0 0 C0 -0 1 -0 1 -0 C6 -0 9 0 13 2 C13 3 13 4 12 6 C9 7 5 7 2 7 C1 7 0 7 -0 7 C-2 7 -3 7 -5 7 C-8 7 -11 7 -13 7 C-21 7 -29 7 -37 7 C-42 7 -46 7 -51 7 C-53 7 -55 7 -57 7 C-59 6 -62 6 -64 6 C-65 6 -65 6 -67 6 C-71 6 -75 7 -80 9 C-82 9 -85 9 -87 9 C-88 9 -88 9 -89 10 C-93 10 -96 10 -100 8 C-100 7 -100 6 -100 5 C-90 1 -80 2 -70 2 C-58 2 -45 1 -33 1 C-9 0 -9 0 0 0 Z " fill="#000000" transform="translate(1356.10,3173.81)"/>
<path d="M0 0 C0 0 0 1 0 3 C-21 15 -44 18 -69 12 C-70 11 -71 10 -73 10 C-73 7 -73 7 -72 5 C-65 -0 -54 -0 -46 -2 C-45 -2 -45 -2 -43 -2 C-29 -4 -13 -2 0 0 Z " fill="#000000" transform="translate(1241,3180)"/>
</svg>
